<svg width="80" height="80" viewBox="0 0 80 80" fill="none" xmlns="http://www.w3.org/2000/svg">
<path d="M17.9289 21.9472H30.1497V27.0738H17.9289V21.9472ZM17.9289 33.6049H30.1497V38.7316H17.9289V33.6049ZM17.9289 45.2625H30.1497V50.3892H17.9289V45.2625ZM17.9289 56.9203H30.1497V62.0469H17.9289V56.9203Z" fill="white"/>
<path d="M42.6427 68.8733V26.9837L69.4359 26.9524V55.2115H74.5641V24.3861C74.5641 22.9876 73.3947 21.8227 71.9969 21.8227L40.0756 21.8599C38.6607 21.8616 37.5145 23.0087 37.5145 24.4233V68.8733H10.5641V18.1488L37.5145 10.905V16.7247H42.6427V7.56136C42.6427 5.90297 41.0169 4.65482 39.4128 5.0859L7.33419 13.708C6.78935 13.8546 6.30809 14.1766 5.96492 14.6241C5.62174 15.0716 5.43581 15.6197 5.4359 16.1835V68.8733H0V74H80V68.8733H42.6427Z" fill="white"/>
<path d="M69.4359 59.8256H74.5641V64.6011H69.4359V59.8256ZM49.8503 33.6049H62.0711V38.7316H49.8503V33.6049ZM49.8503 45.2625H62.0711V50.3892H49.8503V45.2625ZM49.8503 56.9203H62.0711V62.0469H49.8503V56.9203Z" fill="white"/>
</svg>
