<svg width="80" height="80" viewBox="0 0 80 80" fill="none" xmlns="http://www.w3.org/2000/svg">
<path d="M0 19.8184L20 21.4995V24.8638L0 26.5449V19.8184ZM0 37.2664L20.342 29.551L21.75 32.5994L2.817 43.3633L0 37.2664ZM2.817 3L21.75 13.7629L20.342 16.8133L0 9.09687L2.817 3ZM63.333 6.36327C61.077 6.36327 58.916 6.82341 56.953 7.65086L43.942 13.0908H33.333V16.4541H25V29.9092H33.333V33.2725H43.932L50 35.8083V41.6821H45V46.7275H50V77H60L70 63.5449V38.5812C75.882 35.9849 80 30.0777 80 23.1816C80 13.892 72.539 6.36327 63.333 6.36327ZM63.333 61.3017L56.667 70.2725V38.5933L56.953 38.7144C58.9746 39.5641 61.143 40.001 63.333 40V61.3017ZM63.333 33.2725C62.0224 33.2741 60.7246 33.0127 59.515 32.5035L45.257 26.5449H40V19.8184H45.267L59.505 13.8668C60.7169 13.3529 62.0185 13.089 63.333 13.0908C66.276 13.0908 68.899 14.4046 70.732 16.4541H61.667V21.4995H73.164C73.255 22.0505 73.333 22.6054 73.333 23.1816C73.333 23.7578 73.255 24.3128 73.164 24.8638H61.667V29.9092H70.732C68.899 31.9586 66.276 33.2725 63.333 33.2725Z" fill="white"/>
</svg>
