<svg width="321" height="148" viewBox="0 0 321 148" fill="none" xmlns="http://www.w3.org/2000/svg">
<path d="M0.974609 58.75C0.974609 53.0891 5.56369 48.5 11.2246 48.5V48.5C16.8855 48.5 21.4746 43.9109 21.4746 38.25V24.25C21.4746 10.8571 32.3317 0 45.7246 0H276.225C289.618 0 300.475 10.8571 300.475 24.25V38.25C300.475 43.9109 305.064 48.5 310.725 48.5V48.5C316.386 48.5 320.975 53.0891 320.975 58.75V113C320.975 132.33 305.305 148 285.975 148H35.9746C16.6446 148 0.974609 132.33 0.974609 113L0.974609 58.75Z" fill="url(#paint0_linear_5340_20)"/>
<defs>
<linearGradient id="paint0_linear_5340_20" x1="160.975" y1="0" x2="160.975" y2="640.5" gradientUnits="userSpaceOnUse">
<stop stop-color="#D9E9D7"/>
<stop offset="1" stop-color="#B3D3AE"/>
</linearGradient>
</defs>
</svg>
