<svg width="70" height="70" viewBox="0 0 70 70" fill="none" xmlns="http://www.w3.org/2000/svg">
<path d="M62.6913 38.3149L58.1282 37.2247V35.6218C60.6486 34.1329 62.3439 31.3893 62.3439 28.2558V22.206C62.3439 17.4913 58.508 13.6556 53.7932 13.6556H52.8476C50.3304 13.6556 48.0642 14.7495 46.4982 16.4864C44.9815 11.5772 40.4008 8 35.0001 8C29.5994 8 25.0188 11.5769 23.5021 16.4864C21.936 14.7495 19.6699 13.6556 17.1526 13.6556H16.207C11.4923 13.6556 7.65629 17.4913 7.65629 22.206V28.2558C7.65629 31.3892 9.35156 34.1329 11.872 35.6218V37.2247L7.30887 38.3149C3.00553 39.3431 0 43.1511 0 47.5754V51.6912C0 52.4462 0.612262 53.0583 1.36713 53.0583H12.4095C12.3396 53.6033 12.3045 54.1523 12.3046 54.7018V59.074H4.10153C3.34652 59.074 2.7344 59.6863 2.7344 60.4411C2.7344 61.1961 3.34666 61.8083 4.10153 61.8083H65.8985C66.6535 61.8083 67.2656 61.196 67.2656 60.4411C67.2656 59.6861 66.6533 59.074 65.8985 59.074H57.6954V54.7083C57.6954 54.1501 57.6595 53.5993 57.5897 53.0584H68.6329C69.3879 53.0584 70 52.4462 70 51.6913V47.5756C70.0001 43.1511 66.9945 39.343 62.6913 38.3149ZM47.0315 22.206C47.0314 18.999 49.6406 16.3898 52.8478 16.3898H53.7934C57.0006 16.3898 59.6097 18.999 59.6097 22.206V22.5566C57.6397 22.5342 55.7172 21.9485 54.0693 20.8687C53.8468 20.723 53.5866 20.6454 53.3207 20.6454C53.0548 20.6454 52.7946 20.723 52.5721 20.8687C50.9243 21.9486 49.0017 22.5343 47.0317 22.5566V22.206H47.0315ZM47.0314 27.1407V25.2913C49.245 25.27 51.4001 24.6935 53.3204 23.6119C55.2408 24.6937 57.3958 25.27 59.6095 25.2913V28.2559C59.6095 31.4631 57.0003 34.0723 53.7931 34.0723H52.8475C49.6403 34.0723 47.0311 31.4631 47.0311 28.2559V27.1407H47.0314ZM49.6536 42.8774C49.0916 42.6555 48.5148 42.4734 47.9274 42.3324L43.5822 41.2942C43.906 41.1608 44.2397 41.0527 44.5802 40.9708L48.899 39.9358L49.6536 42.8774ZM48.5217 35.6271V37.2145L43.9429 38.3118C42.9593 38.5472 42.0197 38.9382 41.1594 39.47V37.4719C43.0381 36.3468 44.5769 34.7338 45.6123 32.8043C46.3437 33.9633 47.3411 34.9311 48.5217 35.6271ZM44.2971 27.1407C44.2971 32.267 40.1266 36.4375 35.0003 36.4375C29.874 36.4375 25.7034 32.267 25.7034 27.1407V23.1357H27.206C31.0444 23.1357 34.7013 21.9109 37.7076 19.6866L38.021 20.1549C38.6337 21.0728 39.4636 21.8252 40.4371 22.3452C41.4105 22.8652 42.4973 23.1367 43.6009 23.1357H44.2973L44.2971 27.1407ZM25.7031 20.0311C25.7031 14.905 29.8737 10.7344 35 10.7344C40.1263 10.7344 44.2969 14.905 44.2969 20.0313V20.4013H43.6005C42.9464 20.4019 42.3023 20.241 41.7254 19.9328C41.1484 19.6246 40.6565 19.1786 40.2934 18.6346L39.7878 17.8788C40.2005 17.4606 40.5925 17.0224 40.9622 16.5657C41.437 15.9784 41.3456 15.1176 40.7583 14.643C40.1714 14.1683 39.3103 14.2595 38.8356 14.847C35.9831 18.3767 31.7443 20.4011 27.2059 20.4011H25.7031V20.0311ZM24.3878 32.8043C25.4255 34.7382 26.969 36.3541 28.8533 37.4794V39.4776C27.9896 38.942 27.0455 38.5484 26.0571 38.3119L21.4784 37.2147V35.6273C22.6589 34.9311 23.6563 33.9633 24.3878 32.8043ZM26.4029 41.2882L22.0637 42.328C21.48 42.4685 20.9067 42.6497 20.3482 42.8701L21.1012 39.9361L25.4198 40.9711C25.7569 41.0518 26.0851 41.1584 26.4029 41.2882ZM10.3908 22.206C10.3907 18.999 12.9998 16.3898 16.207 16.3898H17.1526C20.3598 16.3898 22.969 18.999 22.969 22.206V22.5566C20.999 22.5342 19.0765 21.9485 17.4286 20.8687C17.2061 20.723 16.9459 20.6454 16.68 20.6454C16.414 20.6454 16.1539 20.723 15.9314 20.8687C14.2836 21.9486 12.361 22.5343 10.391 22.5566L10.3908 22.206ZM10.3907 28.2559V25.2913C12.6043 25.27 14.7594 24.6935 16.6797 23.6119C18.6 24.6937 20.7551 25.27 22.9687 25.2913V28.2559C22.9687 31.4631 20.3596 34.0723 17.1524 34.0723H16.2068C12.9998 34.0723 10.3907 31.4631 10.3907 28.2559ZM13.076 50.3244H2.7344V47.5756C2.7344 44.4218 4.87677 41.7072 7.9441 40.9747L12.2489 39.9462L14.2828 47.8739C13.7932 48.6448 13.3886 49.4664 13.076 50.3244ZM14.6065 36.6541C15.134 36.7551 15.6698 36.8061 16.2069 36.8065H17.1525C17.6965 36.8065 18.228 36.7534 18.744 36.6557V38.1201L17.0308 44.7971C16.8304 44.9575 16.6349 45.1239 16.4447 45.2962L14.6065 38.131V36.6541ZM15.0391 59.0741V54.7022C15.0391 51.3867 16.6491 48.401 19.2142 46.5718L31.7165 59.0741H15.0391ZM21.7691 45.2597C22.0752 45.154 22.3862 45.063 22.701 44.987L29.2305 43.4223L32.4397 55.9302L21.7691 45.2597ZM31.5876 41.6066V38.6785C32.6953 39.0065 33.8447 39.1728 35 39.1722C36.1895 39.1722 37.3389 38.9979 38.425 38.6748V41.6223L35.0085 54.9397L31.5876 41.6066ZM40.7823 43.4368L47.2921 44.992C47.6163 45.07 47.9365 45.164 48.2514 45.2736L37.5713 55.9539L40.7823 43.4368ZM54.961 59.0741H38.3179L50.8019 46.59C53.3578 48.4196 54.961 51.3993 54.961 54.7085V59.0741ZM55.3939 38.1313L53.5544 45.3014C53.3651 45.1301 53.1707 44.9646 52.9714 44.8051L51.2563 38.1204V36.656C51.7809 36.7559 52.3137 36.8064 52.8478 36.8068H53.7934C54.3405 36.8068 54.8752 36.7531 55.3939 36.6544V38.1313ZM67.2657 50.3242H56.9221C56.6094 49.4676 56.2052 48.6474 55.7163 47.8777L57.7511 39.9461L62.0559 40.9745C65.1234 41.7072 67.2656 44.4218 67.2656 47.5754V50.3242H67.2657Z" fill="url(#paint0_linear_5008_35)"/>
<defs>
<linearGradient id="paint0_linear_5008_35" x1="7.53846" y1="16.968" x2="50.1745" y2="63.1249" gradientUnits="userSpaceOnUse">
<stop stop-color="#37AF27"/>
<stop offset="1" stop-color="#10A2D0"/>
</linearGradient>
</defs>
</svg>
