<svg width="70" height="70" viewBox="0 0 70 70" fill="none" xmlns="http://www.w3.org/2000/svg">
<path fill-rule="evenodd" clip-rule="evenodd" d="M6 6H64V64H6V6ZM9 9V13.9875H23.8764V9H9ZM26.8764 9V13.9875H61V9H26.8764ZM61 16.9875H9V61H61V16.9875ZM12.8465 20.834H57.1535V45.8525H12.8465V20.834ZM15.8465 23.834V40.3329L18.0991 37.7349C18.0991 37.7349 18.0991 37.7349 18.0991 37.7349C19.7027 35.8855 21.6849 34.4023 23.9116 33.3858C26.1384 32.3693 28.5575 31.8433 31.0053 31.8433H39.3322C41.4372 31.8433 43.5154 31.3714 45.414 30.4623C47.3125 29.5532 48.9831 28.23 50.3029 26.5902L52.521 23.834H15.8465ZM54.1535 26.5904L52.6401 28.471C51.0391 30.4603 49.0126 32.0653 46.7096 33.1681C44.4066 34.2708 41.8856 34.8433 39.3322 34.8433H31.0053C28.9874 34.8433 26.9931 35.2769 25.1575 36.1149C23.3218 36.9529 21.6877 38.1756 20.3658 39.7002L17.6324 42.8525H54.1535V26.5904ZM49.6957 54.9309V57.6828H46.6957V54.9309H12.7621V51.9309H46.6957V49.1792H49.6957V51.9309H57.507V54.9309H49.6957Z" fill="url(#paint0_linear_5008_36)"/>
<defs>
<linearGradient id="paint0_linear_5008_36" x1="12.2462" y1="15.6667" x2="57.581" y2="53.3929" gradientUnits="userSpaceOnUse">
<stop stop-color="#37AF27"/>
<stop offset="1" stop-color="#10A2D0"/>
</linearGradient>
</defs>
</svg>
