<svg width="70" height="70" viewBox="0 0 70 70" fill="none" xmlns="http://www.w3.org/2000/svg">
<path d="M64.4826 28.6053C59.104 25.007 64.8684 19.693 61.8594 15.2369C59.7983 12.1844 54.6511 13.2205 51.9398 11.7054C49.7354 9.58873 49.0851 4.31935 45.5691 3.29444C42.1634 2.0133 38.6143 5.94584 35.5503 6.25777C32.4862 5.95698 28.9371 2.00216 25.4983 3.23874C21.9824 4.26365 21.3651 9.52189 19.1277 11.6497C16.4494 13.1759 11.3022 12.1287 9.20802 15.1812C7.00365 18.0888 9.56072 22.7232 8.93247 25.7645C7.60985 28.5607 2.87045 30.7777 3.00271 34.4985C2.88147 38.2194 7.59883 40.4363 8.93247 43.2326C9.56072 46.2739 6.98161 50.9082 9.20802 53.8159C11.2691 56.8683 16.4163 55.8323 19.1277 57.3474C23.1286 62.6947 23.1727 69.2341 31.913 64.1875C34.7787 62.3717 36.3218 62.3828 39.1875 64.1875C44.2575 67.4182 47.7845 66.126 49.9889 60.5446C51.7855 54.1501 58.4316 58.1717 61.8594 53.8604C64.0638 50.9528 61.5067 46.3184 62.135 43.2771C62.7149 42.1764 63.5143 41.2091 64.4826 40.4363C69.1559 36.4815 69.189 32.5267 64.4826 28.6053ZM62.2121 37.9632C53.4498 44.7476 65.188 52.5125 55.2022 53.0918C46.7705 53.6711 48.8426 58.7622 44.5772 62.5833C41.998 62.7838 38.46 59.1632 35.5503 59.3972C32.6405 59.1632 29.0915 62.7393 26.5234 62.5833C24.2529 61.2799 23.5364 56.1888 21.0675 54.6514C18.8632 52.7464 13.8482 53.6042 11.9194 51.8552C10.8172 46.285 15.226 43.266 8.88839 37.9632C0.974693 31.3792 15.2039 32.0922 11.9855 21.3084C11.699 19.7042 11.3793 17.8994 11.9194 17.1419C16.8462 14.2788 20.9904 17.7435 24.0434 9.88952C24.8701 8.26303 25.5204 6.43602 26.832 6.35803C32.4531 7.9511 34.4481 11.8502 40.7636 7.76172C42.1524 7.00417 43.7285 6.14637 44.5772 6.42488C46.8477 7.7283 47.5641 12.8194 50.0881 14.3568C52.2925 16.2618 57.3074 15.404 59.2362 17.153C59.7763 17.9106 59.4567 19.7153 59.1701 21.3195C55.8966 32.1034 70.1258 31.3792 62.2121 37.9632Z" fill="url(#paint0_linear_5008_34)"/>
<path d="M48.6993 26.2993H46.0871C47.0989 24.5297 47.6453 22.5276 47.6743 20.484C47.9278 16.3064 41.8988 14.0895 39.8488 18.0331C37.8057 21.8889 34.8049 25.1408 31.1415 27.469C31.0366 27.1318 30.8286 26.8368 30.5473 26.6266C30.2661 26.4165 29.9262 26.3018 29.5764 26.2993H21.2218C20.7834 26.2993 20.3628 26.4753 20.0528 26.7887C19.7427 27.1021 19.5686 27.5271 19.5686 27.9703V46.9089C19.5686 47.3521 19.7427 47.7771 20.0528 48.0905C20.3628 48.4039 20.7834 48.5799 21.2218 48.5799H25.9612C26.9667 48.6211 27.9622 48.3648 28.8256 47.8423C29.6891 47.3199 30.3828 46.5541 30.8219 45.6389C35.8647 46.9384 41.0483 47.597 46.2525 47.5996C47.4115 47.6062 48.5375 47.2103 49.4424 46.4783C50.3472 45.7462 50.9759 44.7224 51.2233 43.5779L53.6371 32.6158C53.8025 31.8633 53.8 31.083 53.6298 30.3316C53.4596 29.5802 53.126 28.8765 52.6532 28.2716C52.1804 27.6668 51.5802 27.176 50.8963 26.8348C50.2124 26.4936 49.4619 26.3107 48.6993 26.2993ZM25.9612 45.2378H22.82V29.6414H27.9452V43.5334C27.9364 43.7808 27.8767 44.0237 27.7699 44.2465C27.6631 44.4694 27.5116 44.6673 27.3249 44.8276C27.1383 44.988 26.9206 45.1073 26.6858 45.1779C26.451 45.2485 26.2043 45.2689 25.9612 45.2378ZM50.4408 31.8694L48.027 42.8315C47.9389 43.2313 47.7181 43.5886 47.4013 43.8439C47.0845 44.0993 46.6908 44.2374 46.2855 44.2352C41.2128 44.2425 36.1602 43.5911 31.2517 42.2968V31.3013C36.1185 28.628 40.1007 24.5681 42.7034 19.6262C42.968 18.8798 44.4118 19.5594 44.3236 20.3726C44.2575 22.4893 43.5631 25.0961 41.7886 26.0987C41.4232 26.2624 41.1191 26.5399 40.9208 26.8906C40.7226 27.2414 40.6404 27.647 40.6864 28.0483C40.7036 28.4788 40.8857 28.8857 41.1942 29.1829C41.5027 29.4802 41.9135 29.6446 42.3397 29.6414H48.7324C48.9953 29.6505 49.2531 29.7175 49.4878 29.8378C49.7224 29.958 49.9283 30.1286 50.091 30.3376C50.2537 30.5466 50.3692 30.7889 50.4297 31.0477C50.4901 31.3065 50.4939 31.5756 50.4408 31.836V31.8694Z" fill="url(#paint1_linear_5008_34)"/>
<defs>
<linearGradient id="paint0_linear_5008_34" x1="10" y1="13.5" x2="59.5" y2="56" gradientUnits="userSpaceOnUse">
<stop stop-color="#37AF27"/>
<stop offset="1" stop-color="#10A2D0"/>
</linearGradient>
<linearGradient id="paint1_linear_5008_34" x1="10" y1="13.5" x2="59.5" y2="56" gradientUnits="userSpaceOnUse">
<stop stop-color="#37AF27"/>
<stop offset="1" stop-color="#10A2D0"/>
</linearGradient>
</defs>
</svg>
