<svg width="70" height="70" viewBox="0 0 70 70" fill="none" xmlns="http://www.w3.org/2000/svg">
<path d="M65.9177 46.9909L58.8428 39.9159C66.9578 22.8871 54.4847 3 35.5002 3C16.5486 3 4.02623 22.8529 12.1575 39.9159L5.08259 46.9909C3.1136 48.9599 3.95081 52.3202 6.62068 53.1333L14.4794 55.5203L16.8664 63.3792C17.6762 66.0385 21.0296 66.8929 23.0088 64.9173L33.3371 54.5889C34.757 54.7066 36.1949 54.7106 37.6633 54.5889L47.9916 64.9173C49.9637 66.8894 53.3225 66.0439 54.134 63.3792L56.521 55.5203L64.3798 53.1333C67.0538 52.319 67.8834 48.9566 65.9177 46.9909ZM20.3991 62.3063L18.0109 54.4475C17.8354 53.8668 17.5191 53.3384 17.0903 52.9093C16.6614 52.4802 16.1332 52.1637 15.5525 51.9879L7.69377 49.6009L14.0552 43.2394C17.5102 48.3679 22.7543 52.1958 28.8856 53.8201L20.3991 62.3063ZM16.7225 40.5717C7.44891 25.8037 18.2382 6.69132 35.5002 6.69132C52.9016 6.69132 63.4681 25.9363 54.2779 40.5716C45.5763 54.4491 25.4227 54.4472 16.7225 40.5717ZM55.448 51.9878C54.8673 52.1637 54.3391 52.4803 53.91 52.9093C53.481 53.3384 53.1644 53.8667 52.9884 54.4474L50.6015 62.3062L42.1152 53.8198C48.2465 52.1956 53.4905 48.3677 56.9456 43.2392L63.307 49.6006L55.448 51.9878Z" fill="url(#paint0_linear_5008_33)"/>
<path d="M35.5002 10.3828C23.1487 10.3828 14.2192 22.3721 17.8459 34.2276C20.9358 44.3528 31.8967 49.7325 41.7016 46.2244C48.8429 43.6686 53.9567 36.8365 53.9567 28.8395C53.9567 18.6624 45.6771 10.3828 35.5002 10.3828ZM25.546 39.7338C15.5795 30.6368 22.136 14.0741 35.5002 14.0741C44.5954 14.0741 51.5189 22.2581 50.0821 31.1551C48.2744 42.6874 34.2377 47.6875 25.546 39.7338Z" fill="url(#paint1_linear_5008_33)"/>
<path d="M41.0999 23.8479L32.9645 29.8866L30.1463 26.8838C29.4486 26.1403 28.2807 26.1033 27.5374 26.8009C26.7942 27.4985 26.7571 28.6666 27.4547 29.4098L31.3983 33.6118C32.0401 34.2958 33.0921 34.3889 33.8441 33.8308L43.3 26.812C44.1185 26.2045 44.2894 25.0484 43.6819 24.2299C43.0744 23.4115 41.9184 23.2404 41.0999 23.8479Z" fill="url(#paint2_linear_5008_33)"/>
<defs>
<linearGradient id="paint0_linear_5008_33" x1="10.7846" y1="13.5" x2="60.0277" y2="54.4785" gradientUnits="userSpaceOnUse">
<stop stop-color="#37AF27"/>
<stop offset="1" stop-color="#10A2D0"/>
</linearGradient>
<linearGradient id="paint1_linear_5008_33" x1="10.7846" y1="13.5" x2="60.0277" y2="54.4785" gradientUnits="userSpaceOnUse">
<stop stop-color="#37AF27"/>
<stop offset="1" stop-color="#10A2D0"/>
</linearGradient>
<linearGradient id="paint2_linear_5008_33" x1="10.7846" y1="13.5" x2="60.0277" y2="54.4785" gradientUnits="userSpaceOnUse">
<stop stop-color="#37AF27"/>
<stop offset="1" stop-color="#10A2D0"/>
</linearGradient>
</defs>
</svg>
