<svg width="321" height="148" viewBox="0 0 321 148" fill="none" xmlns="http://www.w3.org/2000/svg">
<path d="M0.742188 58.3779C0.742188 52.717 5.33127 48.1279 10.9922 48.1279V48.1279C16.6531 48.1279 21.2422 43.5388 21.2422 37.8779V20.6279C21.2422 9.58224 30.1965 0.62793 41.2422 0.62793H280.242C291.288 0.62793 300.242 9.58224 300.242 20.6279V37.8779C300.242 43.5388 304.831 48.1279 310.492 48.1279V48.1279C316.153 48.1279 320.742 52.717 320.742 58.3779V127.628C320.742 138.674 311.788 147.628 300.742 147.628H20.7422C9.69649 147.628 0.742188 138.674 0.742188 127.628L0.742188 58.3779Z" fill="#E8E8E8"/>
</svg>
