<svg width="80" height="80" viewBox="0 0 80 80" fill="none" xmlns="http://www.w3.org/2000/svg">
<path d="M12.8745 7.92703C12.8745 10.3777 10.8878 12.3643 8.43723 12.3643C5.9867 12.3643 4 10.3777 4 7.92703C4 5.47634 5.9867 3.48979 8.43723 3.48979C10.8878 3.48979 12.8745 5.47634 12.8745 7.92703Z" stroke="white" stroke-width="5" stroke-miterlimit="10"/>
<path d="M12.8745 74.7814H4V21.2388H12.8745V74.7814Z" stroke="white" stroke-width="5" stroke-miterlimit="10"/>
<path d="M8.4375 12.3644V21.2389" stroke="white" stroke-width="5" stroke-miterlimit="10"/>
<path d="M75.2905 7.92715C75.2905 10.3778 73.3038 12.3644 70.8532 12.3644C68.4027 12.3644 66.416 10.3778 66.416 7.92715C66.416 5.47647 68.4027 3.48992 70.8532 3.48992C73.3038 3.48992 75.2905 5.47647 75.2905 7.92715Z" stroke="white" stroke-width="5" stroke-miterlimit="10"/>
<path d="M75.2905 74.7812H66.416V21.2387H75.2905V74.7812Z" stroke="white" stroke-width="5" stroke-miterlimit="10"/>
<path d="M70.8555 12.3644V21.2389" stroke="white" stroke-width="5" stroke-miterlimit="10"/>
<path d="M66.4176 70.344H12.875" stroke="white" stroke-width="5" stroke-miterlimit="10"/>
<path d="M12.875 25.6761H26.3346C26.3346 25.6761 32.2944 21.2389 39.6463 21.2389C46.9982 21.2389 52.958 25.6761 52.958 25.6761H66.4176" stroke="white" stroke-width="5" stroke-miterlimit="10"/>
<path d="M26.334 77V19.0202" stroke="white" stroke-width="5" stroke-miterlimit="10"/>
<path d="M52.957 19.0202V77" stroke="white" stroke-width="5" stroke-miterlimit="10"/>
<path d="M39.6465 14.583V43.5729" stroke="white" stroke-width="5" stroke-miterlimit="10"/>
<path d="M39.6465 52.4473V77" stroke="white" stroke-width="5" stroke-miterlimit="10"/>
<path d="M44.0834 52.4474H35.209V43.5729H44.0834V52.4474Z" stroke="white" stroke-width="5" stroke-miterlimit="10"/>
</svg>
