<svg width="321" height="147" viewBox="0 0 321 147" fill="none" xmlns="http://www.w3.org/2000/svg">
<path d="M0.5625 58.75C0.5625 53.0891 5.15158 48.5 10.8125 48.5V48.5C16.4734 48.5 21.0625 43.9109 21.0625 38.25V24.25C21.0625 10.8571 31.9196 0 45.3125 0H275.812C289.205 0 300.062 10.8571 300.062 24.25V38.25C300.062 43.9109 304.652 48.5 310.312 48.5V48.5C315.973 48.5 320.562 53.0891 320.562 58.75V112C320.562 131.33 304.892 147 285.562 147H35.5625C16.2325 147 0.5625 131.33 0.5625 112L0.5625 58.75Z" fill="#EEEEEE"/>
</svg>
