<svg width="321" height="148" viewBox="0 0 321 148" fill="none" xmlns="http://www.w3.org/2000/svg">
<path d="M0.373047 68.9702C0.373047 57.9245 9.32735 48.9702 20.373 48.9702H30.123C41.1687 48.9702 50.123 40.0159 50.123 28.9702V20.4702C50.123 9.42452 59.0774 0.470215 70.123 0.470215H250.623C261.669 0.470215 270.623 9.42452 270.623 20.4702V28.9702C270.623 40.0159 279.577 48.9702 290.623 48.9702H300.373C311.419 48.9702 320.373 57.9245 320.373 68.9702V127.97C320.373 139.016 311.419 147.97 300.373 147.97H20.373C9.32735 147.97 0.373047 139.016 0.373047 127.97V68.9702Z" fill="#E8E8E8"/>
</svg>
