<svg xmlns="http://www.w3.org/2000/svg"><defs><style>.icon { display: none; }.icon:target { display: inline; }</style></defs><svg viewBox="0 0 53 49.857334"><g id="Arrow-left" class="icon">
<path d="M3 28.4286H53M3 28.4286L24.4286 49.8571M3 28.4286L24.4286 7" stroke="#4BAA3F" stroke-width="6" stroke-linecap="round" stroke-linejoin="round"/>
</g></svg><svg viewBox="0 0 53 50"><g id="Arrow-right" class="icon">
<path d="M53 28.5714L3 28.5714M53 28.5714L31.5714 7.14286M53 28.5714L31.5714 50" stroke="#4BAA3F" stroke-width="6" stroke-linecap="round" stroke-linejoin="round"/>
</g></svg><svg viewBox="0 0 80 80"><g id="Brush" class="icon">F
<g clip-path="url(#clip0_5008_56)">
<path d="M78.448 27.6183L74.4699 23.6404C73.1305 22.301 71.2232 21.8106 69.4677 22.2372C69.8946 20.481 69.4033 18.574 68.0645 17.235L59.4353 8.60573C58.6571 7.82689 57.6554 7.31004 56.5698 7.12712C56.3868 6.04146 55.8699 5.03983 55.0911 4.2616L52.3824 1.55284C50.3119 -0.517613 46.9551 -0.517613 44.8847 1.55284L17.7571 28.6806C15.6867 30.7509 15.6867 34.1077 17.7571 36.1781L23.5348 41.9558C23.8015 42.2213 24.0049 42.5436 24.1296 42.8987C24.2544 43.2538 24.2974 43.6324 24.2555 44.0064C24.2148 44.3814 24.0901 44.7423 23.8907 45.0624C23.6912 45.3825 23.4221 45.6534 23.1034 45.8551C5.88241 56.8324 4.26507 58.4498 3.57427 59.1406C-1.19134 63.9062 -1.19151 71.6606 3.57427 76.4261C8.33988 81.1919 16.0942 81.1919 20.86 76.4261C21.5508 75.7353 23.1683 74.1178 34.1454 56.8969C34.3472 56.5792 34.6181 56.3111 34.9378 56.1125C35.2576 55.9139 35.618 55.79 35.9923 55.75C36.7579 55.6659 37.5059 55.9267 38.0449 56.4657L43.8226 62.2434C45.893 64.3139 49.2498 64.3137 51.3203 62.2434L78.448 35.116C80.5183 33.0456 80.5183 29.6888 78.448 27.6183ZM47.5715 58.495L41.7938 52.7173C40.1187 51.0422 37.7689 50.2219 35.4141 50.4804C34.2515 50.6078 33.1324 50.9944 32.1392 51.6118C31.1459 52.2292 30.3039 53.0616 29.6751 54.0477C24.8096 61.6806 18.6806 71.1086 17.1114 72.6777C14.4084 75.3806 10.0261 75.3806 7.32321 72.6777C4.62028 69.9747 4.62028 65.5926 7.32321 62.8895C8.8923 61.3204 18.3203 55.1914 25.9532 50.3258C27.9519 49.0518 29.2667 46.9412 29.5252 44.5852C29.7838 42.2292 28.9594 39.883 27.2835 38.207L21.5059 32.4293L25.719 28.2162L51.7845 54.2816L47.5715 58.495ZM55.5368 50.5295L29.4712 24.464L48.6336 5.3016L51.3424 8.01018L48.3171 14.7213C48.2668 14.8329 48.2517 14.9571 48.2737 15.0775C48.2957 15.1979 48.3538 15.3087 48.4403 15.3953L48.4458 15.4006C48.5343 15.487 48.6473 15.544 48.7694 15.5639C48.8915 15.5839 49.0168 15.5658 49.1282 15.5121L55.6865 12.3545L64.3157 20.9837L52.7775 38.1795C52.6997 38.2954 52.6645 38.4349 52.6781 38.5739C52.6916 38.7129 52.7531 38.8429 52.8519 38.9417L52.8532 38.9429C52.9524 39.0416 53.0829 39.1027 53.2223 39.1156C53.3617 39.1286 53.5012 39.0926 53.6169 39.0139L70.7211 27.3889L74.6993 31.3669L55.5368 50.5295Z" fill="white"/>
<path d="M13.0497 70.072C14.7739 70.072 16.1716 68.6743 16.1716 66.9501C16.1716 65.2259 14.7739 63.8281 13.0497 63.8281C11.3255 63.8281 9.92773 65.2259 9.92773 66.9501C9.92773 68.6743 11.3255 70.072 13.0497 70.072Z" fill="white"/>
</g>
<defs>
<clipPath id="clip0_5008_56">
<rect width="80" height="80" fill="white"/>
</clipPath>
</defs>
</g></svg><svg viewBox="0 0 80 74"><g id="Building" class="icon">
<path d="M17.9289 21.9472H30.1497V27.0738H17.9289V21.9472ZM17.9289 33.6049H30.1497V38.7316H17.9289V33.6049ZM17.9289 45.2625H30.1497V50.3892H17.9289V45.2625ZM17.9289 56.9203H30.1497V62.0469H17.9289V56.9203Z" fill="white"/>
<path d="M42.6427 68.8733V26.9837L69.4359 26.9524V55.2115H74.5641V24.3861C74.5641 22.9876 73.3947 21.8227 71.9969 21.8227L40.0756 21.8599C38.6607 21.8616 37.5145 23.0087 37.5145 24.4233V68.8733H10.5641V18.1488L37.5145 10.905V16.7247H42.6427V7.56136C42.6427 5.90297 41.0169 4.65482 39.4128 5.0859L7.33419 13.708C6.78935 13.8546 6.30809 14.1766 5.96492 14.6241C5.62174 15.0716 5.43581 15.6197 5.4359 16.1835V68.8733H0V74H80V68.8733H42.6427Z" fill="white"/>
<path d="M69.4359 59.8256H74.5641V64.6011H69.4359V59.8256ZM49.8503 33.6049H62.0711V38.7316H49.8503V33.6049ZM49.8503 45.2625H62.0711V50.3892H49.8503V45.2625ZM49.8503 56.9203H62.0711V62.0469H49.8503V56.9203Z" fill="white"/>
</g></svg><svg viewBox="0 0 68.00017 66.00019"><g id="Cool" class="icon">
<path d="M64.4826 28.6053C59.104 25.007 64.8684 19.693 61.8594 15.2369C59.7983 12.1844 54.6511 13.2205 51.9398 11.7054C49.7354 9.58873 49.0851 4.31935 45.5691 3.29444C42.1634 2.0133 38.6143 5.94584 35.5503 6.25777C32.4862 5.95698 28.9371 2.00216 25.4983 3.23874C21.9824 4.26365 21.3651 9.52189 19.1277 11.6497C16.4494 13.1759 11.3022 12.1287 9.20802 15.1812C7.00365 18.0888 9.56072 22.7232 8.93247 25.7645C7.60985 28.5607 2.87045 30.7777 3.00271 34.4985C2.88147 38.2194 7.59883 40.4363 8.93247 43.2326C9.56072 46.2739 6.98161 50.9082 9.20802 53.8159C11.2691 56.8683 16.4163 55.8323 19.1277 57.3474C23.1286 62.6947 23.1727 69.2341 31.913 64.1875C34.7787 62.3717 36.3218 62.3828 39.1875 64.1875C44.2575 67.4182 47.7845 66.126 49.9889 60.5446C51.7855 54.1501 58.4316 58.1717 61.8594 53.8604C64.0638 50.9528 61.5067 46.3184 62.135 43.2771C62.7149 42.1764 63.5143 41.2091 64.4826 40.4363C69.1559 36.4815 69.189 32.5267 64.4826 28.6053ZM62.2121 37.9632C53.4498 44.7476 65.188 52.5125 55.2022 53.0918C46.7705 53.6711 48.8426 58.7622 44.5772 62.5833C41.998 62.7838 38.46 59.1632 35.5503 59.3972C32.6405 59.1632 29.0915 62.7393 26.5234 62.5833C24.2529 61.2799 23.5364 56.1888 21.0675 54.6514C18.8632 52.7464 13.8482 53.6042 11.9194 51.8552C10.8172 46.285 15.226 43.266 8.88839 37.9632C0.974693 31.3792 15.2039 32.0922 11.9855 21.3084C11.699 19.7042 11.3793 17.8994 11.9194 17.1419C16.8462 14.2788 20.9904 17.7435 24.0434 9.88952C24.8701 8.26303 25.5204 6.43602 26.832 6.35803C32.4531 7.9511 34.4481 11.8502 40.7636 7.76172C42.1524 7.00417 43.7285 6.14637 44.5772 6.42488C46.8477 7.7283 47.5641 12.8194 50.0881 14.3568C52.2925 16.2618 57.3074 15.404 59.2362 17.153C59.7763 17.9106 59.4567 19.7153 59.1701 21.3195C55.8966 32.1034 70.1258 31.3792 62.2121 37.9632Z" fill="url(#paint0_linear_5008_34)"/>
<path d="M48.6993 26.2993H46.0871C47.0989 24.5297 47.6453 22.5276 47.6743 20.484C47.9278 16.3064 41.8988 14.0895 39.8488 18.0331C37.8057 21.8889 34.8049 25.1408 31.1415 27.469C31.0366 27.1318 30.8286 26.8368 30.5473 26.6266C30.2661 26.4165 29.9262 26.3018 29.5764 26.2993H21.2218C20.7834 26.2993 20.3628 26.4753 20.0528 26.7887C19.7427 27.1021 19.5686 27.5271 19.5686 27.9703V46.9089C19.5686 47.3521 19.7427 47.7771 20.0528 48.0905C20.3628 48.4039 20.7834 48.5799 21.2218 48.5799H25.9612C26.9667 48.6211 27.9622 48.3648 28.8256 47.8423C29.6891 47.3199 30.3828 46.5541 30.8219 45.6389C35.8647 46.9384 41.0483 47.597 46.2525 47.5996C47.4115 47.6062 48.5375 47.2103 49.4424 46.4783C50.3472 45.7462 50.9759 44.7224 51.2233 43.5779L53.6371 32.6158C53.8025 31.8633 53.8 31.083 53.6298 30.3316C53.4596 29.5802 53.126 28.8765 52.6532 28.2716C52.1804 27.6668 51.5802 27.176 50.8963 26.8348C50.2124 26.4936 49.4619 26.3107 48.6993 26.2993ZM25.9612 45.2378H22.82V29.6414H27.9452V43.5334C27.9364 43.7808 27.8767 44.0237 27.7699 44.2465C27.6631 44.4694 27.5116 44.6673 27.3249 44.8276C27.1383 44.988 26.9206 45.1073 26.6858 45.1779C26.451 45.2485 26.2043 45.2689 25.9612 45.2378ZM50.4408 31.8694L48.027 42.8315C47.9389 43.2313 47.7181 43.5886 47.4013 43.8439C47.0845 44.0993 46.6908 44.2374 46.2855 44.2352C41.2128 44.2425 36.1602 43.5911 31.2517 42.2968V31.3013C36.1185 28.628 40.1007 24.5681 42.7034 19.6262C42.968 18.8798 44.4118 19.5594 44.3236 20.3726C44.2575 22.4893 43.5631 25.0961 41.7886 26.0987C41.4232 26.2624 41.1191 26.5399 40.9208 26.8906C40.7226 27.2414 40.6404 27.647 40.6864 28.0483C40.7036 28.4788 40.8857 28.8857 41.1942 29.1829C41.5027 29.4802 41.9135 29.6446 42.3397 29.6414H48.7324C48.9953 29.6505 49.2531 29.7175 49.4878 29.8378C49.7224 29.958 49.9283 30.1286 50.091 30.3376C50.2537 30.5466 50.3692 30.7889 50.4297 31.0477C50.4901 31.3065 50.4939 31.5756 50.4408 31.836V31.8694Z" fill="url(#paint1_linear_5008_34)"/>
<defs>
<linearGradient id="paint0_linear_5008_34" x1="10" y1="13.5" x2="59.5" y2="56" gradientUnits="userSpaceOnUse">
<stop stop-color="#37AF27"/>
<stop offset="1" stop-color="#10A2D0"/>
</linearGradient>
<linearGradient id="paint1_linear_5008_34" x1="10" y1="13.5" x2="59.5" y2="56" gradientUnits="userSpaceOnUse">
<stop stop-color="#37AF27"/>
<stop offset="1" stop-color="#10A2D0"/>
</linearGradient>
</defs>
</g></svg><svg viewBox="0 0 100 27.248665"><g id="Dev-logo" class="icon">
<path fill-rule="evenodd" clip-rule="evenodd" d="M13.0172 0.257437C12.4227 -0.0858126 11.6902 -0.0858124 11.0957 0.257438L0.96077 6.10881C0.366243 6.45206 0 7.08642 0 7.77292V19.4757C0 20.1622 0.366244 20.7965 0.96077 21.1398L11.0957 26.9911C11.6902 27.3344 12.4227 27.3344 13.0172 26.9911L23.1521 21.1398C23.7466 20.7965 24.1128 20.1622 24.1128 19.4757V7.77292C24.1128 7.08642 23.7466 6.45206 23.1521 6.10881L13.0172 0.257437ZM3.61535 8.88306L3.52658 17.8217C3.52551 17.9297 3.58116 18.0303 3.67319 18.0868L6.6883 19.9373C6.89315 20.0631 7.15657 19.9157 7.15657 19.6753V15.8866C7.15657 15.5968 7.52086 15.4679 7.70309 15.6933L11.1545 19.9619C11.3367 20.1873 11.701 20.0585 11.701 19.7686V13.7808C11.701 13.6771 11.6488 13.5804 11.5621 13.5236L4.09127 8.62895C3.88795 8.49574 3.61776 8.64001 3.61535 8.88306ZM20.4976 8.88306L20.5864 17.8217C20.5875 17.9297 20.5318 18.0303 20.4398 18.0868L17.4247 19.9373C17.2198 20.0631 16.9564 19.9157 16.9564 19.6753V15.8866C16.9564 15.5968 16.5921 15.4679 16.4099 15.6933L12.9585 19.9619C12.7763 20.1873 12.412 20.0585 12.412 19.7686V13.7808C12.412 13.6771 12.4642 13.5804 12.5509 13.5236L20.0217 8.62895C20.225 8.49574 20.4952 8.64001 20.4976 8.88306Z" fill="#272727"/>
<path d="M31.8956 18.2384H29.8851V9.34781H31.9081L34.6223 13.0946L37.1857 9.34781H39.0832V18.2384H37.0727V12.5738L34.6223 16.0412H34.3333L31.8956 12.6119V18.2384Z" fill="#272727"/>
<path d="M42.8668 18.2384H40.8438L44.5004 9.34781H46.2973L49.9539 18.2384H47.8052L47.0764 16.3714H43.5956L42.8668 18.2384ZM46.3224 14.4662L45.3423 11.9515L44.3496 14.4662H46.3224Z" fill="#272727"/>
<path d="M56.5711 9.34781H58.9335L56.1188 13.7042L59.0466 18.2384H56.6842L54.7994 15.2537L52.9396 18.2384H50.5773L53.5051 13.7042L50.7155 9.34781H53.0779L54.8622 12.2055L56.5711 9.34781Z" fill="#272727"/>
<path d="M59.7213 13.7931C59.7213 12.4807 60.1527 11.3884 61.0156 10.5163C61.8868 9.6357 63.0135 9.1954 64.3958 9.1954C65.7696 9.1954 66.888 9.61453 67.7508 10.4528C68.6304 11.291 69.0702 12.4045 69.0702 13.7931C69.0702 15.1309 68.6262 16.2317 67.7383 17.0953C66.8587 17.959 65.7445 18.3908 64.3958 18.3908C63.0303 18.3908 61.9078 17.9717 61.0282 17.1334C60.1569 16.2952 59.7213 15.1817 59.7213 13.7931ZM61.8575 13.7931C61.8575 14.5467 62.1046 15.186 62.5989 15.7109C63.0847 16.2274 63.6837 16.4857 64.3958 16.4857C65.2 16.4857 65.8241 16.2359 66.2681 15.7363C66.7121 15.2198 66.9341 14.5721 66.9341 13.7931C66.9341 12.9887 66.6911 12.341 66.2052 11.8499C65.711 11.3503 65.1078 11.1005 64.3958 11.1005C63.6586 11.1005 63.0512 11.3503 62.5737 11.8499C62.0962 12.3494 61.8575 12.9972 61.8575 13.7931Z" fill="#272727"/>
<path d="M77.4166 15.8379L78.1831 17.362C77.9151 17.6669 77.5171 17.9166 76.9894 18.1114C76.47 18.2977 75.9129 18.3908 75.3181 18.3908C73.9527 18.3908 72.8427 17.9717 71.9882 17.1334C71.1338 16.2782 70.7065 15.1648 70.7065 13.7931C70.7065 12.4553 71.1086 11.3545 71.9128 10.4909C72.717 9.62723 73.848 9.1954 75.3056 9.1954C75.8585 9.1954 76.3737 9.28007 76.8512 9.44942C77.3287 9.61876 77.7098 9.84314 77.9947 10.1226L77.1025 11.6467C76.5161 11.2826 75.9171 11.1005 75.3056 11.1005C74.5935 11.1005 74.0029 11.3376 73.5338 11.8118C73.0731 12.2775 72.8427 12.9379 72.8427 13.7931C72.8427 14.5721 73.0898 15.2198 73.5841 15.7363C74.0783 16.2359 74.7192 16.4857 75.5066 16.4857C76.2103 16.4857 76.847 16.2698 77.4166 15.8379Z" fill="#272727"/>
<path d="M79.1884 13.7931C79.1884 12.4807 79.6198 11.3884 80.4827 10.5163C81.3539 9.6357 82.4806 9.1954 83.8628 9.1954C85.2367 9.1954 86.355 9.61453 87.2179 10.4528C88.0975 11.291 88.5373 12.4045 88.5373 13.7931C88.5373 15.1309 88.0933 16.2317 87.2053 17.0953C86.3257 17.959 85.2116 18.3908 83.8628 18.3908C82.4974 18.3908 81.3748 17.9717 80.4952 17.1334C79.624 16.2952 79.1884 15.1817 79.1884 13.7931ZM81.3246 13.7931C81.3246 14.5467 81.5717 15.186 82.0659 15.7109C82.5518 16.2274 83.1508 16.4857 83.8628 16.4857C84.6671 16.4857 85.2912 16.2359 85.7351 15.7363C86.1791 15.2198 86.4011 14.5721 86.4011 13.7931C86.4011 12.9887 86.1582 12.341 85.6723 11.8499C85.1781 11.3503 84.5749 11.1005 83.8628 11.1005C83.1257 11.1005 82.5183 11.3503 82.0408 11.8499C81.5633 12.3494 81.3246 12.9972 81.3246 13.7931Z" fill="#272727"/>
<path d="M92.8124 18.2384H90.8019V9.34781H92.825L95.5392 13.0946L98.1026 9.34781H100V18.2384H97.9895V12.5738L95.5392 16.0412H95.2501L92.8124 12.6119V18.2384Z" fill="#272727"/>
</g></svg><svg viewBox="0 0 80 77"><g id="Fan" class="icon">
<path d="M0 19.8184L20 21.4995V24.8638L0 26.5449V19.8184ZM0 37.2664L20.342 29.551L21.75 32.5994L2.817 43.3633L0 37.2664ZM2.817 3L21.75 13.7629L20.342 16.8133L0 9.09687L2.817 3ZM63.333 6.36327C61.077 6.36327 58.916 6.82341 56.953 7.65086L43.942 13.0908H33.333V16.4541H25V29.9092H33.333V33.2725H43.932L50 35.8083V41.6821H45V46.7275H50V77H60L70 63.5449V38.5812C75.882 35.9849 80 30.0777 80 23.1816C80 13.892 72.539 6.36327 63.333 6.36327ZM63.333 61.3017L56.667 70.2725V38.5933L56.953 38.7144C58.9746 39.5641 61.143 40.001 63.333 40V61.3017ZM63.333 33.2725C62.0224 33.2741 60.7246 33.0127 59.515 32.5035L45.257 26.5449H40V19.8184H45.267L59.505 13.8668C60.7169 13.3529 62.0185 13.089 63.333 13.0908C66.276 13.0908 68.899 14.4046 70.732 16.4541H61.667V21.4995H73.164C73.255 22.0505 73.333 22.6054 73.333 23.1816C73.333 23.7578 73.255 24.3128 73.164 24.8638H61.667V29.9092H70.732C68.899 31.9586 66.276 33.2725 63.333 33.2725Z" fill="white"/>
</g></svg><svg viewBox="0 0 75.290665 77"><g id="Fence" class="icon">
<path fill-rule="evenodd" clip-rule="evenodd" d="M1.50195 7.9271C1.50195 11.7585 4.60799 14.8643 8.43918 14.8643C12.2704 14.8643 15.3764 11.7585 15.3764 7.9271C15.3764 4.09565 12.2704 0.989868 8.43918 0.989868C4.60799 0.989868 1.50195 4.09565 1.50195 7.9271ZM8.43918 9.86433C7.36931 9.86433 6.50195 8.99702 6.50195 7.9271C6.50195 6.85718 7.36931 5.98987 8.43918 5.98987C9.50906 5.98987 10.3764 6.85718 10.3764 7.9271C10.3764 8.99702 9.50906 9.86433 8.43918 9.86433Z" fill="white"/>
<path fill-rule="evenodd" clip-rule="evenodd" d="M1.50195 77.2814H15.3764V18.7388H1.50195V77.2814ZM6.50195 72.2814V23.7388H10.3764V72.2814H6.50195Z" fill="white"/>
<path fill-rule="evenodd" clip-rule="evenodd" d="M10.9385 21.2389V12.3644H5.93853V21.2389H10.9385Z" fill="white"/>
<path fill-rule="evenodd" clip-rule="evenodd" d="M63.9186 7.92721C63.9186 11.7587 67.0246 14.8644 70.8558 14.8644C74.687 14.8644 77.793 11.7587 77.793 7.92721C77.793 4.09577 74.687 0.989983 70.8558 0.989983C67.0246 0.989983 63.9186 4.09577 63.9186 7.92721ZM70.8558 9.86445C69.7859 9.86445 68.9186 8.99713 68.9186 7.92721C68.9186 6.8573 69.7859 5.98998 70.8558 5.98998C71.9257 5.98998 72.793 6.8573 72.793 7.92721C72.793 8.99713 71.9257 9.86445 70.8558 9.86445Z" fill="white"/>
<path fill-rule="evenodd" clip-rule="evenodd" d="M63.9186 77.2813H77.793V18.7387H63.9186V77.2813ZM68.9186 72.2813V23.7387H72.793V72.2813H68.9186Z" fill="white"/>
<path fill-rule="evenodd" clip-rule="evenodd" d="M73.3569 21.2389V12.3644H68.3569V21.2389H73.3569Z" fill="white"/>
<path fill-rule="evenodd" clip-rule="evenodd" d="M12.8768 72.8441H66.4194V67.8441H12.8768V72.8441Z" fill="white"/>
<path fill-rule="evenodd" clip-rule="evenodd" d="M25.5638 23.1761H12.8768V28.1761H27.1649L27.8244 27.6851L27.8256 27.6842L27.8278 27.6826L27.8594 27.6598C27.8913 27.637 27.9448 27.5992 28.0186 27.5487C28.1664 27.4476 28.3952 27.2957 28.6961 27.1099C29.2994 26.7373 30.1843 26.2333 31.281 25.7283C33.4963 24.7082 36.4564 23.7389 39.6481 23.7389C42.8398 23.7389 45.8 24.7082 48.0153 25.7283C49.112 26.2333 49.9969 26.7373 50.6001 27.1099C50.9011 27.2957 51.1298 27.4476 51.2776 27.5487C51.3515 27.5992 51.4049 27.637 51.4369 27.6598L51.4669 27.6814L51.4689 27.6829L51.4704 27.684L51.4719 27.6851L52.1314 28.1761H66.4194V23.1761H53.7324C53.585 23.08 53.4162 22.9724 53.2273 22.8557C52.4834 22.3963 51.4189 21.791 50.1066 21.1867C47.504 19.9882 43.8083 18.7389 39.6481 18.7389C35.4879 18.7389 31.7923 19.9882 29.1896 21.1867C27.8774 21.791 26.8129 22.3963 26.0689 22.8557C25.88 22.9724 25.7113 23.08 25.5638 23.1761Z" fill="white"/>
<path fill-rule="evenodd" clip-rule="evenodd" d="M23.8363 19.0202V77H28.8363V19.0202H23.8363Z" fill="white"/>
<path fill-rule="evenodd" clip-rule="evenodd" d="M55.4592 77V19.0202H50.4592V77H55.4592Z" fill="white"/>
<path fill-rule="evenodd" clip-rule="evenodd" d="M42.1477 43.5729V14.583H37.1477V43.5729H42.1477Z" fill="white"/>
<path fill-rule="evenodd" clip-rule="evenodd" d="M42.1477 77V52.4473H37.1477V77H42.1477Z" fill="white"/>
<path fill-rule="evenodd" clip-rule="evenodd" d="M32.7111 54.9474H46.5856V41.073H32.7111V54.9474ZM37.7111 49.9474V46.073H41.5856V49.9474H37.7111Z" fill="white"/>
</g></svg><svg viewBox="0 0 70 61.808"><g id="Humans" class="icon">
<path d="M62.6913 38.3149L58.1282 37.2247V35.6218C60.6486 34.1329 62.3439 31.3893 62.3439 28.2558V22.206C62.3439 17.4913 58.508 13.6556 53.7932 13.6556H52.8476C50.3304 13.6556 48.0642 14.7495 46.4982 16.4864C44.9815 11.5772 40.4008 8 35.0001 8C29.5994 8 25.0188 11.5769 23.5021 16.4864C21.936 14.7495 19.6699 13.6556 17.1526 13.6556H16.207C11.4923 13.6556 7.65629 17.4913 7.65629 22.206V28.2558C7.65629 31.3892 9.35156 34.1329 11.872 35.6218V37.2247L7.30887 38.3149C3.00553 39.3431 0 43.1511 0 47.5754V51.6912C0 52.4462 0.612262 53.0583 1.36713 53.0583H12.4095C12.3396 53.6033 12.3045 54.1523 12.3046 54.7018V59.074H4.10153C3.34652 59.074 2.7344 59.6863 2.7344 60.4411C2.7344 61.1961 3.34666 61.8083 4.10153 61.8083H65.8985C66.6535 61.8083 67.2656 61.196 67.2656 60.4411C67.2656 59.6861 66.6533 59.074 65.8985 59.074H57.6954V54.7083C57.6954 54.1501 57.6595 53.5993 57.5897 53.0584H68.6329C69.3879 53.0584 70 52.4462 70 51.6913V47.5756C70.0001 43.1511 66.9945 39.343 62.6913 38.3149ZM47.0315 22.206C47.0314 18.999 49.6406 16.3898 52.8478 16.3898H53.7934C57.0006 16.3898 59.6097 18.999 59.6097 22.206V22.5566C57.6397 22.5342 55.7172 21.9485 54.0693 20.8687C53.8468 20.723 53.5866 20.6454 53.3207 20.6454C53.0548 20.6454 52.7946 20.723 52.5721 20.8687C50.9243 21.9486 49.0017 22.5343 47.0317 22.5566V22.206H47.0315ZM47.0314 27.1407V25.2913C49.245 25.27 51.4001 24.6935 53.3204 23.6119C55.2408 24.6937 57.3958 25.27 59.6095 25.2913V28.2559C59.6095 31.4631 57.0003 34.0723 53.7931 34.0723H52.8475C49.6403 34.0723 47.0311 31.4631 47.0311 28.2559V27.1407H47.0314ZM49.6536 42.8774C49.0916 42.6555 48.5148 42.4734 47.9274 42.3324L43.5822 41.2942C43.906 41.1608 44.2397 41.0527 44.5802 40.9708L48.899 39.9358L49.6536 42.8774ZM48.5217 35.6271V37.2145L43.9429 38.3118C42.9593 38.5472 42.0197 38.9382 41.1594 39.47V37.4719C43.0381 36.3468 44.5769 34.7338 45.6123 32.8043C46.3437 33.9633 47.3411 34.9311 48.5217 35.6271ZM44.2971 27.1407C44.2971 32.267 40.1266 36.4375 35.0003 36.4375C29.874 36.4375 25.7034 32.267 25.7034 27.1407V23.1357H27.206C31.0444 23.1357 34.7013 21.9109 37.7076 19.6866L38.021 20.1549C38.6337 21.0728 39.4636 21.8252 40.4371 22.3452C41.4105 22.8652 42.4973 23.1367 43.6009 23.1357H44.2973L44.2971 27.1407ZM25.7031 20.0311C25.7031 14.905 29.8737 10.7344 35 10.7344C40.1263 10.7344 44.2969 14.905 44.2969 20.0313V20.4013H43.6005C42.9464 20.4019 42.3023 20.241 41.7254 19.9328C41.1484 19.6246 40.6565 19.1786 40.2934 18.6346L39.7878 17.8788C40.2005 17.4606 40.5925 17.0224 40.9622 16.5657C41.437 15.9784 41.3456 15.1176 40.7583 14.643C40.1714 14.1683 39.3103 14.2595 38.8356 14.847C35.9831 18.3767 31.7443 20.4011 27.2059 20.4011H25.7031V20.0311ZM24.3878 32.8043C25.4255 34.7382 26.969 36.3541 28.8533 37.4794V39.4776C27.9896 38.942 27.0455 38.5484 26.0571 38.3119L21.4784 37.2147V35.6273C22.6589 34.9311 23.6563 33.9633 24.3878 32.8043ZM26.4029 41.2882L22.0637 42.328C21.48 42.4685 20.9067 42.6497 20.3482 42.8701L21.1012 39.9361L25.4198 40.9711C25.7569 41.0518 26.0851 41.1584 26.4029 41.2882ZM10.3908 22.206C10.3907 18.999 12.9998 16.3898 16.207 16.3898H17.1526C20.3598 16.3898 22.969 18.999 22.969 22.206V22.5566C20.999 22.5342 19.0765 21.9485 17.4286 20.8687C17.2061 20.723 16.9459 20.6454 16.68 20.6454C16.414 20.6454 16.1539 20.723 15.9314 20.8687C14.2836 21.9486 12.361 22.5343 10.391 22.5566L10.3908 22.206ZM10.3907 28.2559V25.2913C12.6043 25.27 14.7594 24.6935 16.6797 23.6119C18.6 24.6937 20.7551 25.27 22.9687 25.2913V28.2559C22.9687 31.4631 20.3596 34.0723 17.1524 34.0723H16.2068C12.9998 34.0723 10.3907 31.4631 10.3907 28.2559ZM13.076 50.3244H2.7344V47.5756C2.7344 44.4218 4.87677 41.7072 7.9441 40.9747L12.2489 39.9462L14.2828 47.8739C13.7932 48.6448 13.3886 49.4664 13.076 50.3244ZM14.6065 36.6541C15.134 36.7551 15.6698 36.8061 16.2069 36.8065H17.1525C17.6965 36.8065 18.228 36.7534 18.744 36.6557V38.1201L17.0308 44.7971C16.8304 44.9575 16.6349 45.1239 16.4447 45.2962L14.6065 38.131V36.6541ZM15.0391 59.0741V54.7022C15.0391 51.3867 16.6491 48.401 19.2142 46.5718L31.7165 59.0741H15.0391ZM21.7691 45.2597C22.0752 45.154 22.3862 45.063 22.701 44.987L29.2305 43.4223L32.4397 55.9302L21.7691 45.2597ZM31.5876 41.6066V38.6785C32.6953 39.0065 33.8447 39.1728 35 39.1722C36.1895 39.1722 37.3389 38.9979 38.425 38.6748V41.6223L35.0085 54.9397L31.5876 41.6066ZM40.7823 43.4368L47.2921 44.992C47.6163 45.07 47.9365 45.164 48.2514 45.2736L37.5713 55.9539L40.7823 43.4368ZM54.961 59.0741H38.3179L50.8019 46.59C53.3578 48.4196 54.961 51.3993 54.961 54.7085V59.0741ZM55.3939 38.1313L53.5544 45.3014C53.3651 45.1301 53.1707 44.9646 52.9714 44.8051L51.2563 38.1204V36.656C51.7809 36.7559 52.3137 36.8064 52.8478 36.8068H53.7934C54.3405 36.8068 54.8752 36.7531 55.3939 36.6544V38.1313ZM67.2657 50.3242H56.9221C56.6094 49.4676 56.2052 48.6474 55.7163 47.8777L57.7511 39.9461L62.0559 40.9745C65.1234 41.7072 67.2656 44.4218 67.2656 47.5754V50.3242H67.2657Z" fill="url(#paint0_linear_5008_35)"/>
<defs>
<linearGradient id="paint0_linear_5008_35" x1="7.53846" y1="16.968" x2="50.1745" y2="63.1249" gradientUnits="userSpaceOnUse">
<stop stop-color="#37AF27"/>
<stop offset="1" stop-color="#10A2D0"/>
</linearGradient>
</defs>
</g></svg><svg viewBox="0 0 295 106.993675"><g id="Logo" class="icon">
<path fill-rule="evenodd" clip-rule="evenodd" d="M0 56.6058C0 54.7988 1.46489 53.3339 3.27187 53.3339H57.8031C59.6101 53.3339 61.0749 54.7988 61.0749 56.6058V64.1311C61.0749 65.9381 59.6101 67.403 57.8031 67.403H43.0595C42.6726 67.403 42.297 67.4464 41.937 67.5285L41.9345 67.5121H28.6834L38.0629 71.9512C38.0285 72.3239 38.0355 72.7071 38.0884 73.0958L41.0567 94.9243C41.9249 101.309 36.9617 106.993 30.5185 106.993C24.0696 106.993 19.1047 101.299 19.9823 94.9101L22.9778 73.1026C23.3918 70.0887 21.0497 67.403 18.0076 67.403H3.27187C1.46489 67.403 0 65.9381 0 64.1311V56.6058ZM30.5375 100.667C33.0071 100.667 35.009 98.665 35.009 96.1955C35.009 93.7259 33.0071 91.7239 30.5375 91.7239C28.0678 91.7239 26.0659 93.7259 26.0659 96.1955C26.0659 98.665 28.0678 100.667 30.5375 100.667Z" fill="#272727"/>
<path d="M0 22.0715C0 20.2426 0.916806 18.5356 2.44134 17.5255L27.5257 0.907124C29.3514 -0.302361 31.7235 -0.302388 33.5493 0.907124L39.5897 4.90888V10.3089L41.7709 15.9801V4.14686C41.7709 2.64102 42.9917 1.4203 44.4975 1.4203H51.0412C52.547 1.4203 53.7678 2.64102 53.7678 4.14686V14.3019L58.6336 17.5255C60.1581 18.5356 61.0749 20.2426 61.0749 22.0715V41.3371C61.0749 44.3488 58.6334 46.7903 55.6218 46.7903H5.45312C2.44155 46.7903 0 44.3488 0 41.3371V22.0715Z" fill="url(#paint0_linear_5008_109)"/>
<path d="M97.3458 6.98584C84.4809 6.98584 79.5859 11.5042 79.5859 23.5533V34.3473C79.5859 46.3964 84.4809 50.9148 97.3458 50.9148H125.711C126.778 50.9148 127.343 50.35 127.343 49.2832V41.9407C127.343 40.8739 126.778 40.3091 125.711 40.3091H97.7851C92.3253 40.3091 91.0075 38.8657 91.0075 33.2177V24.6829C91.0075 19.0349 92.3253 17.5915 97.7851 17.5915H125.711C126.778 17.5915 127.343 17.0267 127.343 15.9599V8.61749C127.343 7.55064 126.778 6.98584 125.711 6.98584H97.3458Z" fill="#272727"/>
<path d="M135.466 6.98584C134.4 6.98584 133.835 7.55064 133.835 8.61749V43.3841C133.835 49.3459 135.968 50.9148 140.299 50.9148H146.7C151.908 50.9148 153.226 50.1617 155.109 46.5847L169.794 18.2819C169.919 17.9681 170.233 17.8426 170.547 17.8426H171.049C171.363 17.8426 171.488 18.0308 171.488 18.4701V49.2832C171.488 50.4128 172.053 50.9148 173.12 50.9148H181.278C182.345 50.9148 182.91 50.4128 182.91 49.2832V14.5165C182.91 8.61749 180.839 6.98584 176.509 6.98584H169.919C164.711 6.98584 163.393 7.73891 161.573 11.316L146.951 39.6188C146.825 39.9326 146.574 40.0581 146.198 40.0581H145.696C145.382 40.0581 145.256 39.8698 145.256 39.4305V8.61749C145.256 7.55064 144.691 6.98584 143.625 6.98584H135.466Z" fill="#272727"/>
<path d="M189.885 6.98584C188.756 6.98584 188.254 7.55064 188.254 8.61749V15.9599C188.254 17.0267 188.756 17.5915 189.885 17.5915H208.712V49.2832C208.712 50.35 209.277 50.9148 210.406 50.9148H218.502C219.569 50.9148 220.134 50.35 220.134 49.2832V17.5915H239.023C240.09 17.5915 240.655 17.0267 240.655 15.9599V8.61749C240.655 7.55064 240.09 6.98584 239.023 6.98584H189.885Z" fill="#272727"/>
<path d="M247.556 6.98584C246.49 6.98584 245.925 7.55064 245.925 8.61749V43.3841C245.925 49.3459 248.058 50.9148 252.389 50.9148H258.79C263.998 50.9148 265.316 50.1617 267.199 46.5847L281.884 18.2819C282.009 17.9681 282.323 17.8426 282.637 17.8426H283.139C283.453 17.8426 283.578 18.0308 283.578 18.4701V49.2832C283.578 50.4128 284.143 50.9148 285.21 50.9148H293.368C294.435 50.9148 295 50.4128 295 49.2832V14.5165C295 8.61749 292.929 6.98584 288.599 6.98584H282.009C276.8 6.98584 275.483 7.73891 273.663 11.316L259.041 39.6188C258.915 39.9326 258.664 40.0581 258.288 40.0581H257.786C257.472 40.0581 257.346 39.8698 257.346 39.4305V8.61749C257.346 7.55064 256.781 6.98584 255.715 6.98584H247.556Z" fill="#272727"/>
<path d="M86.3008 58.6902C81.7824 58.6902 80.0252 60.4473 80.0252 64.401V100.987C80.0252 102.054 80.59 102.619 81.6569 102.619H89.8151C90.9447 102.619 91.5095 102.054 91.5095 100.987V70.3627C91.5095 69.6097 91.8233 69.2959 92.5764 69.2959H116.612C117.365 69.2959 117.679 69.6097 117.679 70.3627V100.987C117.679 102.054 118.243 102.619 119.373 102.619H127.531C128.598 102.619 129.163 102.054 129.163 100.987V64.401C129.163 60.4473 127.406 58.6902 122.887 58.6902H86.3008Z" fill="#272727"/>
<path d="M139.088 58.6902C137.833 58.6902 137.205 59.3177 137.205 60.5729V100.987C137.205 102.054 137.77 102.619 138.837 102.619H146.995C148.062 102.619 148.627 102.054 148.627 100.987V89.7542H173.039C182.892 89.7542 186.782 85.2358 186.782 76.7638V71.6806C186.782 63.2086 182.892 58.6902 173.039 58.6902H139.088ZM148.627 69.6724C148.627 69.1704 148.878 68.9194 149.38 68.9194H170.78C174.231 68.9194 175.361 70.3 175.361 73.2495V75.5715C175.361 78.5837 174.231 79.9644 170.78 79.9644H148.627V69.6724Z" fill="#272727"/>
<path d="M209.926 58.6902C197.061 58.6902 192.166 63.2086 192.166 75.2577V86.0517C192.166 98.1007 197.061 102.619 209.926 102.619H229.506C242.371 102.619 247.266 98.1007 247.266 86.0517V75.2577C247.266 63.2086 242.371 58.6902 229.506 58.6902H209.926ZM203.588 76.1363C203.588 70.4255 204.906 69.0449 210.365 69.0449H229.066C234.526 69.0449 235.844 70.4255 235.844 76.1363V85.1731C235.844 90.8838 234.526 92.3272 229.066 92.3272H210.365C204.906 92.3272 203.588 90.8838 203.588 85.1731V76.1363Z" fill="#272727"/>
<defs>
<linearGradient id="paint0_linear_5008_109" x1="2.1933" y1="45.7218" x2="52.9766" y2="1.85586" gradientUnits="userSpaceOnUse">
<stop stop-color="#A1FF95"/>
<stop offset="1" stop-color="#00A3FF"/>
</linearGradient>
</defs>
</g></svg><svg viewBox="0 0 250.00134 72.80134"><g id="Partner-1" class="icon">
<g clip-path="url(#clip0_5008_65)">
<path d="M63.2645 36.5601V38.0087H75.6914C76.5199 38.0087 77.7626 38.0087 78.5785 38.8372C79.3944 39.6656 79.4069 40.9083 79.4069 41.7242V54.1512C79.4069 54.9796 79.4069 56.2223 78.5785 57.0382C77.75 57.8667 76.5073 57.8667 75.6914 57.8667H69.6913C68.657 57.8667 67.3089 57.8667 66.8043 56.7269C66.2871 55.5872 67.0111 54.5528 67.6327 53.7143L75.7165 42.9443H63.2896L58.3188 49.572C57.4853 50.6817 56.7648 51.6432 56.7648 52.8859C56.7648 54.1286 57.4351 55.0223 58.3188 56.1997L59.5615 57.8567C60.8042 59.5136 62.0469 61.1705 63.7038 61.999C65.3607 62.8274 67.3189 62.8274 70.0303 62.8274H75.4027C78.5157 62.8274 83.1601 62.8274 86.2731 59.7144C89.3861 56.6014 89.3862 52.0574 89.3862 50.4005V45.4297C89.3862 43.7728 89.3861 39.2288 86.2731 36.1158C83.1601 33.0028 78.5157 33.0028 75.4027 33.0028L66.8168 33C65.9883 32.9998 64.954 33 64.1306 33.8285C63.3021 34.6569 63.3021 35.6913 63.3021 36.5147" fill="#C4151C"/>
<path d="M48.4525 42.987H60.7539L45.942 62.9203H33.6406L48.4525 42.987Z" fill="#C4151C"/>
<path d="M0 46.5017C0 45.6732 0 44.6389 0.828463 43.8155C1.65693 42.992 2.69125 42.987 3.51469 42.987H24.3267C27.0129 42.987 28.9962 42.987 30.6531 43.8155C32.3101 44.6439 33.5402 46.3008 34.7954 47.9578L36.0381 49.6147C36.9193 50.7896 37.5921 51.6859 37.5921 52.9286C37.5921 54.1712 36.8716 55.1328 36.0381 56.2424L31.0674 62.8701H18.6404L26.7242 52.1001C27.3443 51.2716 28.0698 50.2373 27.5527 49.0875C27.0355 47.9477 25.6899 47.9477 24.6656 47.9477H14.9249V72.8016H4.98333V47.9477H0.0125525V46.4967" fill="#C4151C"/>
<path d="M101.174 59.4056C100.428 60.4198 99.6675 61.419 98.9219 62.4182V62.9856H101.023C102.052 61.6148 102.59 60.8994 102.59 60.0734H104.648V62.9856H106.617V60.0734H108.675C108.675 60.8943 109.212 61.6098 110.242 62.9856H112.343V62.4182L110.076 59.4056C111.984 57.9746 111.984 57.9746 111.984 56.0918V55.4666H109.838V56.0918C109.838 58.3738 109.838 58.3738 107.601 58.3738H106.617V55.4616H104.648V58.3738H103.664C101.427 58.3738 101.427 58.3738 101.427 56.0918V55.4666H99.2809V56.0918C99.2809 57.9696 99.2809 57.9696 101.174 59.4056Z" fill="#231F20"/>
<path fill-rule="evenodd" clip-rule="evenodd" d="M116.237 58.4014C116.237 56.747 116.237 56.747 118.069 56.747C119.902 56.747 119.902 56.747 119.902 58.4014H116.237ZM116.237 59.742H118.069C119.992 59.727 120.56 59.7571 121.208 59.6077L121.968 59.429V58.6984C121.968 57.4607 121.968 55.1335 118.428 55.1335H117.713C114.173 55.1335 114.173 57.4582 114.173 58.7235V59.439C114.173 60.7796 114.203 63.029 118.089 63.029C118.672 63.029 119.982 63.029 121.403 62.6725V61.0633H121.002L119.571 61.4198H118.049C116.217 61.4193 116.217 61.4193 116.217 59.7654L116.237 59.742Z" fill="#231F20"/>
<path d="M125.275 55.3386C125.275 56.4708 125.185 59.8826 123.397 62.2676V62.85H125.588C126.886 61.1203 126.886 58.8583 126.886 57.0006H129.974V62.85H131.942V55.3436H125.29" fill="#231F20"/>
<path fill-rule="evenodd" clip-rule="evenodd" d="M136.321 58.4014C136.321 56.747 136.321 56.747 138.156 56.747C139.989 56.747 139.989 56.747 139.989 58.4014H136.323M136.323 59.742H138.158C140.081 59.727 140.649 59.7571 141.297 59.6077L142.057 59.429V58.6984C142.057 57.4607 142.057 55.1335 138.517 55.1335H137.802C134.262 55.1335 134.262 57.4582 134.262 58.7235V59.439C134.262 60.7796 134.292 63.029 138.178 63.029C138.761 63.029 140.071 63.029 141.492 62.6725V61.0633H141.091L139.66 61.4198H138.138C136.306 61.4193 136.306 61.4193 136.306 59.7654L136.323 59.742Z" fill="#231F20"/>
<path d="M149.375 59.1546V58.9309C150.897 58.5443 150.897 57.6053 150.897 57.2463C150.897 56.5308 150.897 55.0999 147.282 55.0999C146.744 55.0999 145.492 55.0999 144.068 55.4589V57.0681H144.47L145.901 56.7091H147.555C148.702 56.7091 148.763 56.7091 148.763 57.5426C148.763 58.3635 148.763 58.3635 147.555 58.3635H145.901V59.7041H147.555C148.702 59.7041 148.763 59.7041 148.763 60.525C148.763 61.361 148.763 61.361 147.555 61.361H145.901L144.47 61.002H144.068V62.6113C145.499 62.9678 146.754 62.9678 147.282 62.9678C150.897 62.9678 150.897 61.5368 150.897 60.8213C150.897 60.4648 150.897 59.5259 149.375 59.1518" fill="#231F20"/>
<path d="M159.166 55.3386V58.1504H155.149V55.3386H153.141V62.9203H155.149V59.9077H159.166V62.9203H160.924V55.3386H159.166Z" fill="#231F20"/>
<path fill-rule="evenodd" clip-rule="evenodd" d="M167.2 59.1546C168.766 59.1546 168.766 59.1546 168.766 60.3169C168.766 61.4793 168.766 61.4793 167.2 61.4793H165.633V59.1546H167.2ZM174.229 55.3888H172.261V62.8952H174.229V55.3888ZM167.476 62.8952C169.846 62.8952 170.84 62.373 170.84 60.3345C170.84 59.2173 170.84 57.5981 167.752 57.5981C167.305 57.5981 166.545 57.6433 165.651 57.8667V55.3612H163.683V62.8676H167.473L167.476 62.8952Z" fill="#231F20"/>
<path fill-rule="evenodd" clip-rule="evenodd" d="M178.748 58.4014C178.748 56.747 178.748 56.747 180.581 56.747C182.413 56.747 182.413 56.747 182.413 58.4014H178.748ZM178.748 59.742H180.581C182.504 59.727 183.071 59.7571 183.719 59.6077L184.479 59.429V58.6984C184.479 57.4607 184.479 55.1335 180.94 55.1335H180.224C176.684 55.1335 176.684 57.4582 176.684 58.7235V59.439C176.684 60.7796 176.714 63.029 180.601 63.029C181.183 63.029 182.494 63.029 183.915 62.6725V61.0633H183.513L182.082 61.4198H180.561C178.728 61.4193 178.728 61.4193 178.728 59.7654L178.748 59.742Z" fill="#231F20"/>
<path fill-rule="evenodd" clip-rule="evenodd" d="M192.556 58.9035C192.556 56.8901 192.556 56.9353 195.217 56.9353C195.576 56.9353 196.068 56.9797 196.663 57.114V60.3275L194.755 60.8045C192.548 60.8047 192.548 60.8047 192.548 58.8965M191.386 64.0932V65.7928C192.817 66.1518 193.972 66.1518 194.424 66.1518C198.491 66.1518 198.616 64.392 198.616 62.3861V55.4069H197.973L197.019 56.1224C196.364 55.2713 194.767 55.2437 194.258 55.2437C190.467 55.2437 190.467 57.6287 190.467 58.7082V59.0672C190.467 60.3199 190.467 62.381 193.68 62.381C194.649 62.381 195.797 62.1124 196.643 61.4873V62.1124C196.643 64.4221 196.598 64.4371 194.228 64.4371H193.198L191.767 64.0781H191.366L191.386 64.0932Z" fill="#231F20"/>
<path fill-rule="evenodd" clip-rule="evenodd" d="M204.606 55.1629C200.815 55.1629 200.815 57.3997 200.815 58.7529V59.4684C200.815 60.809 200.815 63.0584 204.606 63.0584H205.322C209.112 63.0584 209.112 60.8215 209.112 59.4684V58.7529C209.112 57.4123 209.112 55.1629 205.322 55.1629H204.606ZM204.963 56.8173C207.064 56.8173 207.064 56.8173 207.064 59.0993C207.064 61.3814 207.064 61.3814 204.963 61.3814C202.861 61.3814 202.861 61.3814 202.861 59.0993C202.861 56.8173 202.861 56.8173 204.963 56.8173Z" fill="#231F20"/>
<path fill-rule="evenodd" clip-rule="evenodd" d="M217.41 59.1546C217.41 61.3914 217.41 61.3914 215.218 61.3914C214.681 61.3914 213.995 61.3914 213.295 61.2124V57.4467L215.203 56.9697C217.41 56.9697 217.41 56.9993 217.41 59.1463M211.334 55.3805V65.9246H213.302V62.661C214.196 62.8847 214.912 63.0627 215.989 63.0627C219.478 63.0627 219.478 60.5019 219.478 59.4726V58.7572C219.478 57.5044 219.478 55.1671 216.215 55.1671C214.545 55.1671 213.579 55.8977 213.051 56.2994L212.336 55.3454H211.352L211.334 55.3805Z" fill="#231F20"/>
<path fill-rule="evenodd" clip-rule="evenodd" d="M225.443 55.1629C221.652 55.1629 221.652 57.3997 221.652 58.7529V59.4684C221.652 60.809 221.652 63.0584 225.443 63.0584H226.159C229.95 63.0584 229.95 60.8215 229.95 59.4684V58.7529C229.95 57.4123 229.95 55.1629 226.159 55.1629H225.443ZM225.8 56.8173C227.901 56.8173 227.901 56.8173 227.901 59.0993C227.901 61.3814 227.901 61.3814 225.8 61.3814C223.698 61.3814 223.698 61.3814 223.698 59.0993C223.698 56.8173 223.698 56.8173 225.8 56.8173Z" fill="#231F20"/>
<path d="M235.736 55.1629C235.021 55.1629 234.082 55.1629 232.648 55.5219V57.1311H233.05L234.481 56.7746H236.314C237.298 56.7746 237.298 56.7746 237.298 57.342C237.298 57.7286 237.298 57.8491 236.537 57.9822L234.747 58.429C233.718 58.6826 232.287 59.0692 232.287 60.6207C232.287 61.65 232.287 63.0358 235.902 63.0358C236.617 63.0358 237.556 63.0358 238.99 62.6793V61.0701H238.588C237.991 61.234 237.426 61.3688 237.202 61.4291H235.325C234.34 61.4291 234.34 61.4291 234.34 60.8617C234.34 60.5203 234.34 60.445 234.757 60.3244L235.756 60.0558L236.889 59.7721C237.918 59.5186 239.349 59.147 239.349 57.5805C239.349 56.5512 239.349 55.1654 235.734 55.1654" fill="#231F20"/>
<path d="M248.54 63.1713L250.001 62.0818C249.464 61.3663 249.464 61.3663 249.464 60.0985V55.4541H247.495V60.9019L245.587 61.3789C243.559 61.3789 243.559 61.3789 243.559 59.3077V55.4415H241.591V59.609C241.591 61.0851 241.591 63.1488 244.578 63.1488C246.145 63.1488 247.114 62.4182 247.641 62.0165L248.52 63.1789" fill="#231F20"/>
<path fill-rule="evenodd" clip-rule="evenodd" d="M99.4164 37.3886V47.9326H101.563V45.0205H103.263C106.175 45.0205 108.459 45.0205 108.459 41.2045C108.459 37.3635 106.177 37.3635 103.263 37.3635H99.4215M101.568 43.1376V39.2463H104.154C106.077 39.2463 106.167 39.2463 106.167 41.1995C106.167 43.0924 106.167 43.1376 104.154 43.1376H101.568Z" fill="#231F20"/>
<path fill-rule="evenodd" clip-rule="evenodd" d="M113.977 40.2505C110.186 40.2505 110.186 42.4874 110.186 43.8405V44.556C110.186 45.8966 110.186 48.146 113.977 48.146H114.693C118.484 48.146 118.484 45.9092 118.484 44.556V43.8405C118.484 42.4999 118.484 40.2505 114.693 40.2505H113.977ZM114.334 41.9049C116.435 41.9049 116.435 41.9049 116.435 44.187C116.435 46.469 116.435 46.469 114.334 46.469C112.232 46.469 112.232 46.469 112.232 44.187C112.232 41.9049 112.232 41.9049 114.334 41.9049Z" fill="#231F20"/>
<path d="M124.27 48.1335C124.808 48.1335 126.193 48.1335 127.634 47.7745V46.1653H127.233L125.787 46.5217H124.938C122.448 46.5217 122.448 46.5217 122.448 44.197C122.448 41.8723 122.448 41.8723 124.28 41.8723C125.832 41.8723 125.832 41.8723 126.203 43.3485L127.993 42.9016C127.993 42.1861 127.993 40.2656 124.629 40.2656H123.914C120.374 40.2656 120.374 42.5024 120.374 43.8556V44.5711C120.374 45.9117 120.374 48.1611 124.265 48.1611" fill="#231F20"/>
<path d="M133.81 48.1335C134.347 48.1335 135.733 48.1335 137.174 47.7745V46.1653H136.773L135.327 46.5217H134.478C131.988 46.5217 131.988 46.5217 131.988 44.197C131.988 41.8723 131.988 41.8723 133.82 41.8723C135.372 41.8723 135.372 41.8723 135.743 43.3485L137.533 42.9016C137.533 42.1861 137.533 40.2656 134.169 40.2656H133.454C129.914 40.2656 129.914 42.5024 129.914 43.8556V44.5711C129.914 45.9117 129.914 48.1611 133.805 48.1611" fill="#231F20"/>
<path d="M146.363 48.1586L147.824 47.069C147.287 46.3536 147.287 46.3535 147.287 45.0858V40.4413H145.318V45.8891L143.41 46.3661C141.382 46.3661 141.382 46.3661 141.382 44.2949V40.4288H139.414V44.5962C139.414 46.0724 139.414 48.136 142.401 48.136C143.968 48.136 144.937 47.4054 145.464 47.0038L146.343 48.1661" fill="#231F20"/>
<path fill-rule="evenodd" clip-rule="evenodd" d="M153.392 37.7652C152.423 37.7652 152.423 37.7652 151.946 37.2279L151.082 37.8982C152.021 39.1058 152.498 39.1961 153.869 39.1961H154.198C155.554 39.1961 156.046 39.1065 156.959 37.8982L156.096 37.2279C155.634 37.7652 155.634 37.7652 154.65 37.7652H153.382M157.022 48.1837L158.483 47.0941C157.946 46.3787 157.946 46.3787 157.946 45.1109V40.4664H155.978V45.9142L154.07 46.3912C152.087 46.3912 152.041 46.3912 152.041 44.32V40.4539H150.073V44.6213C150.073 46.0975 150.073 48.1611 153.061 48.1611C154.627 48.1611 155.596 47.4306 156.123 47.0289L157.002 48.1912L157.022 48.1837Z" fill="#231F20"/>
<path d="M164.187 48.1335C164.724 48.1335 166.11 48.1335 167.551 47.7745V46.1653H167.15L165.704 46.5217H164.852C162.362 46.5217 162.362 46.5217 162.362 44.197C162.362 41.8723 162.362 41.8723 164.195 41.8723C165.746 41.8723 165.746 41.8723 166.118 43.3485L167.908 42.9016C167.908 42.1861 167.908 40.2656 164.544 40.2656H163.828C160.288 40.2656 160.288 42.5024 160.288 43.8556V44.5711C160.289 45.9117 160.289 48.1611 164.18 48.1611" fill="#231F20"/>
<path d="M170.212 40.4514V47.9578H172.181V45.0456H174.596C174.596 45.8665 175.133 46.582 176.16 47.9578H178.261V47.3904L175.994 44.3778C177.902 42.9468 177.902 42.9468 177.902 41.0639V40.4388H175.756V41.0639C175.756 43.346 175.756 43.346 173.519 43.346H172.178V40.4338H170.21" fill="#231F20"/>
<path d="M187.284 48.1586L188.745 47.069C188.208 46.3536 188.208 46.3535 188.208 45.0858V40.4413H186.239V45.8891L184.331 46.3661C182.303 46.3661 182.303 46.3661 182.303 44.2949V40.4288H180.335V44.5962C180.335 46.0724 180.335 48.136 183.322 48.136C184.889 48.136 185.858 47.4054 186.385 47.0038L187.264 48.1661" fill="#231F20"/>
<path fill-rule="evenodd" clip-rule="evenodd" d="M192.556 43.5142C192.556 41.8598 192.556 41.8598 194.391 41.8598C196.224 41.8598 196.224 41.8598 196.224 43.5142H192.558M192.558 44.8548H194.393C196.316 44.8397 196.884 44.8699 197.532 44.7205L198.292 44.5417V43.8112C198.292 42.5735 198.292 40.2463 194.752 40.2463H194.037C190.497 40.2463 190.497 42.571 190.497 43.8363V44.5518C190.497 45.8924 190.527 48.1418 194.414 48.1418C194.996 48.1418 196.306 48.1418 197.727 47.7828V46.1736H197.326L195.895 46.53H194.373C192.538 46.5298 192.538 46.5298 192.538 44.8756L192.558 44.8548Z" fill="#231F20"/>
</g>
<defs>
<clipPath id="clip0_5008_65">
<rect width="250" height="105" fill="white"/>
</clipPath>
</defs>
</g></svg><svg viewBox="0 0 240 105"><g id="Partner-2" class="icon">
<path fill-rule="evenodd" clip-rule="evenodd" d="M81.856 23.1818V20.9091L107.226 13.4848L121.202 17.4242V20.303L151.585 13.0303V2.87879L121.202 11.8182V9.09091L151.585 0L169.207 7.27273V72.5758H190.703C192.088 72.5758 193.21 73.695 193.21 75.0758C193.21 76.4565 192.088 77.5758 190.703 77.5758H67.0443C65.6599 77.5758 64.5377 76.4565 64.5377 75.0758C64.5377 73.695 65.6599 72.5758 67.0443 72.5758H106.922V65.6061L82.0079 66.6667V62.8788L106.922 61.6667V53.1818L82.0079 55.7576V51.8182L106.922 48.9394V40.7576L82.0079 44.8485V40.7576L106.922 36.6667V28.3333L82.0079 33.7879L81.856 30L106.922 24.0909V15.9091L81.856 23.1818ZM121.202 25V33.7879L151.585 28.3333V18.4848L121.202 25ZM121.202 38.3333V47.1212L151.585 43.6364V33.4848L121.202 38.3333ZM121.202 60.6061V51.8182L151.585 48.7879V58.7879L121.202 60.6061ZM121.202 65V72.4242H151.585V63.9394L121.202 65Z" fill="#272727"/>
<path d="M22.2459 85.303C20.9141 85.303 19.8656 85.7814 18.8171 87.7792L10.1176 104.24C9.89087 104.69 9.97588 105 10.5143 105H14.9349C15.3316 105 15.53 104.887 15.6717 104.606L17.3719 101.314H29.6703L31.3989 104.606C31.5689 104.887 31.7389 105 32.1356 105H36.4429C37.0096 105 37.0947 104.69 36.8396 104.24L27.9984 87.7792C26.9216 85.7814 25.9298 85.303 24.2295 85.303H22.2459ZM23.0677 90.2273C23.1811 90.0866 23.2661 90.0303 23.4078 90.0303H23.5494C23.6911 90.0303 23.7761 90.0866 23.8611 90.2273L27.6583 97.4589H19.3555L23.0677 90.2273Z" fill="#272727"/>
<path d="M45.8077 85.303C39.9986 85.303 37.7883 87.329 37.7883 92.7316V97.5714C37.7883 102.974 39.9986 105 45.8077 105H58.6162C59.0979 105 59.3529 104.747 59.3529 104.268V100.976C59.3529 100.498 59.0979 100.245 58.6162 100.245H46.0061C43.5407 100.245 42.9456 99.5974 42.9456 97.0649V93.2381C42.9456 90.7056 43.5407 90.0584 46.0061 90.0584H58.6162C59.0979 90.0584 59.3529 89.8052 59.3529 89.3268V86.0346C59.3529 85.5563 59.0979 85.303 58.6162 85.303H45.8077Z" fill="#272727"/>
<path d="M63.0211 85.303C62.5393 85.303 62.2843 85.5563 62.2843 86.0346V104.268C62.2843 104.747 62.5393 105 63.0211 105H66.7049C67.1866 105 67.4417 104.747 67.4417 104.268V96.9524H69.652C71.0405 96.9524 71.5222 97.1494 72.1457 97.9935L77.1614 104.606C77.3597 104.887 77.5014 105 78.0682 105H82.4038C83.0555 105 82.9988 104.381 82.8288 104.156L77.133 96.8961C76.4529 96.0238 75.8295 95.3485 75.0927 94.8701C75.5745 94.448 76.0279 93.8571 76.5946 93.1255L82.0637 86.0628C82.2621 85.7814 82.2054 85.303 81.667 85.303H77.4164C76.8497 85.303 76.708 85.4156 76.4813 85.697L71.7489 92.0844C71.0972 92.9849 70.6155 93.1255 69.2553 93.1255H67.4417V86.0346C67.4417 85.5563 67.1866 85.303 66.7049 85.303H63.0211Z" fill="#272727"/>
<path d="M94.2355 85.303C93.7254 85.303 93.4987 85.5563 93.4987 86.0346V89.3268C93.4987 89.8052 93.7254 90.0584 94.2355 90.0584H102.737V104.268C102.737 104.747 102.992 105 103.502 105H107.157C107.639 105 107.894 104.747 107.894 104.268V90.0584H116.424C116.905 90.0584 117.16 89.8052 117.16 89.3268V86.0346C117.16 85.5563 116.905 85.303 116.424 85.303H94.2355Z" fill="#272727"/>
<path d="M121.297 85.303C120.078 85.303 119.54 85.9784 119.54 86.8225V103.481C119.54 104.606 120.078 105 121.297 105H140.056C140.538 105 140.793 104.747 140.793 104.268V101.117C140.793 100.61 140.538 100.385 140.056 100.385H124.952C124.697 100.385 124.556 100.216 124.556 99.9351V97.0931H139.886C140.396 97.0931 140.623 96.868 140.623 96.3615V93.7727C140.623 93.2662 140.396 93.0411 139.886 93.0411H124.556V90.3398C124.556 90.0584 124.697 89.9459 124.952 89.9459H140.056C140.538 89.9459 140.793 89.6926 140.793 89.1861V86.0346C140.793 85.5563 140.538 85.303 140.056 85.303H121.297Z" fill="#272727"/>
<path d="M152.08 85.303C150.096 85.303 149.558 86.3723 149.359 87.9199C148.679 93.4632 148.311 96.3333 147.716 98.1905C147.149 99.9351 146.441 100.245 145.789 100.245H143.494C142.984 100.245 142.757 100.498 142.757 100.976V104.268C142.757 104.747 142.984 105 143.494 105H146.696C149.359 105 150.521 103.79 151.315 101.483C152.392 98.3312 152.987 93.0693 153.213 90.9026C153.27 90.4805 153.355 90.0584 154.007 90.0584H159.788C160.156 90.0584 160.298 90.1991 160.298 90.5368V104.268C160.298 104.747 160.524 105 161.034 105H164.718C165.2 105 165.455 104.747 165.455 104.268V87.8636C165.455 86.0909 164.69 85.303 162.621 85.303H152.08Z" fill="#272727"/>
<path d="M177.179 85.303C175.196 85.303 174.657 86.3723 174.459 87.9199C173.779 93.4632 173.41 96.3333 172.815 98.1905C172.249 99.9351 171.54 100.245 170.888 100.245H168.593C168.083 100.245 167.856 100.498 167.856 100.976V104.268C167.856 104.747 168.083 105 168.593 105H171.795C174.459 105 175.621 103.79 176.414 101.483C177.491 98.3312 178.086 93.0693 178.313 90.9026C178.37 90.4805 178.455 90.0584 179.106 90.0584H184.887C185.255 90.0584 185.397 90.1991 185.397 90.5368V104.268C185.397 104.747 185.624 105 186.134 105H189.818C190.3 105 190.555 104.747 190.555 104.268V87.8636C190.555 86.0909 189.789 85.303 187.721 85.303H177.179Z" fill="#272727"/>
<path d="M193.154 85.303C192.531 85.303 192.531 85.7814 192.758 86.1472L201.627 99.5974C201.259 100.048 200.749 100.245 199.587 100.245H196.753C196.243 100.245 195.988 100.498 195.988 100.976V104.268C195.988 104.747 196.243 105 196.753 105H199.644C201.74 105 203.781 104.55 205.254 102.186L215.427 86.1753C215.626 85.8377 215.654 85.303 215.031 85.303H211.318C210.355 85.303 210.185 85.5844 209.93 86.0065L204.234 95.3485L198.255 85.7814C198.028 85.4156 197.745 85.303 197.207 85.303H193.154Z" fill="#272727"/>
<path d="M218.464 85.303C217.897 85.303 217.614 85.5844 217.614 86.1472V104.268C217.614 104.747 217.869 105 218.35 105H222.034C222.516 105 222.771 104.747 222.771 104.268V99.2316H233.794C238.243 99.2316 240 97.2056 240 93.4069V91.1277C240 87.329 238.243 85.303 233.794 85.303H218.464ZM222.771 90.2273C222.771 90.0022 222.884 89.8896 223.111 89.8896H232.774C234.333 89.8896 234.843 90.5087 234.843 91.8312V92.8723C234.843 94.2229 234.333 94.842 232.774 94.842H222.771V90.2273Z" fill="#272727"/>
</g></svg><svg viewBox="0 0 250 73.5"><g id="Partner-3" class="icon">
<path fill-rule="evenodd" clip-rule="evenodd" d="M33.7079 31H25.2809V32.9101H7.02247C3.14405 32.9101 0 36.1171 0 40.073V64.6657C0 68.6217 3.14405 71.8287 7.02247 71.8287H25.2809V73.5H33.7079V71.8287H51.9663C55.8447 71.8287 58.9888 68.6217 58.9888 64.6657V40.073C58.9888 36.1171 55.8447 32.9101 51.9663 32.9101H33.7079V31ZM25.2809 41.7444H8.89513V62.9944H25.2809V41.7444ZM33.7079 62.9944V41.7444H50.3277V62.9944H33.7079Z" fill="#272727"/>
<path fill-rule="evenodd" clip-rule="evenodd" d="M76.3109 32.9101C72.4324 32.9101 69.2884 36.1171 69.2884 40.073V64.6657C69.2884 68.6217 72.4324 71.8287 76.3109 71.8287H114.232C118.111 71.8287 121.255 68.6217 121.255 64.6657V40.073C121.255 36.1171 118.111 32.9101 114.232 32.9101H76.3109ZM112.125 41.7444H78.1835V62.9944H112.125V41.7444Z" fill="#272727"/>
<path fill-rule="evenodd" clip-rule="evenodd" d="M132.022 40.073C132.022 36.1171 135.167 32.9101 139.045 32.9101H175.562C179.44 32.9101 182.584 36.1171 182.584 40.073V62.9944H185.627V71.8287H129.213V62.9944H132.022V40.073ZM140.449 62.9944H174.391V41.7444H140.449V62.9944Z" fill="#272727"/>
<path fill-rule="evenodd" clip-rule="evenodd" d="M196.395 40.073C196.395 36.1171 199.539 32.9101 203.418 32.9101H239.934C243.813 32.9101 246.957 36.1171 246.957 40.073V62.9944H250V71.8287H193.586V62.9944H196.395V40.073ZM204.822 62.9944H238.764V41.7444H204.822V62.9944Z" fill="#272727"/>
</g></svg><svg viewBox="0 0 30 30"><g id="Phone" class="icon">
<g clip-path="url(#clip0_5008_22)">
<circle cx="15" cy="15" r="15" fill="#73A56C"/>
<path fill-rule="evenodd" clip-rule="evenodd" d="M16.6667 7C16.6667 6.44772 17.1144 6 17.6667 6C19.3464 6 20.9573 6.66726 22.145 7.85499C23.3327 9.04272 24 10.6536 24 12.3333C24 12.8856 23.5523 13.3333 23 13.3333C22.4477 13.3333 22 12.8856 22 12.3333C22 11.1841 21.5435 10.0819 20.7308 9.2692C19.9181 8.45655 18.8159 8 17.6667 8C17.1144 8 16.6667 7.55228 16.6667 7ZM8.77778 8.88889C8.5715 8.88889 8.37367 8.97083 8.22781 9.11669C8.08778 9.25672 8.00666 9.44464 8.00039 9.64196C8.20425 12.8521 9.57142 15.8784 11.8465 18.1535C14.1216 20.4286 17.1479 21.7958 20.358 21.9996C20.5554 21.9933 20.7433 21.9122 20.8833 21.7722C21.0292 21.6263 21.1111 21.4285 21.1111 21.2222V18.3437L18.086 17.1337L17.1908 18.6256C16.9231 19.0719 16.3578 19.2382 15.891 19.008C13.7634 17.9586 12.0414 16.2366 10.992 14.109C10.7618 13.6422 10.9281 13.0769 11.3744 12.8092L12.8663 11.914L11.6563 8.88889H8.77778ZM6.81359 7.70248C7.33453 7.18155 8.04107 6.88889 8.77778 6.88889H12.3333C12.7422 6.88889 13.1099 7.13784 13.2618 7.5175L15.0396 11.9619C15.2219 12.4177 15.0465 12.9383 14.6256 13.1908L13.2344 14.0255C13.9322 15.1315 14.8685 16.0678 15.9745 16.7656L16.8092 15.3744C17.0617 14.9535 17.5823 14.7781 18.0381 14.9604L22.4825 16.7382C22.8622 16.8901 23.1111 17.2578 23.1111 17.6667V21.2222C23.1111 21.9589 22.8185 22.6655 22.2975 23.1864C21.7766 23.7073 21.07 24 20.3333 24C20.3131 24 20.2929 23.9994 20.2727 23.9982C16.5616 23.7726 13.0613 22.1967 10.4323 19.5677C7.8033 16.9387 6.22737 13.4384 6.00184 9.72733C6.00061 9.70713 6 9.6869 6 9.66667C6 8.92995 6.29266 8.22342 6.81359 7.70248ZM16.6667 10.5556C16.6667 10.0033 17.1144 9.55556 17.6667 9.55556C18.4034 9.55556 19.1099 9.84821 19.6309 10.3691C20.1518 10.8901 20.4444 11.5966 20.4444 12.3333C20.4444 12.8856 19.9967 13.3333 19.4444 13.3333C18.8922 13.3333 18.4444 12.8856 18.4444 12.3333C18.4444 12.1271 18.3625 11.9292 18.2166 11.7834C18.0708 11.6375 17.8729 11.5556 17.6667 11.5556C17.1144 11.5556 16.6667 11.1078 16.6667 10.5556Z" fill="white"/>
</g>
<defs>
<clipPath id="clip0_5008_22">
<rect width="30" height="30" fill="white"/>
</clipPath>
</defs>
</g></svg><svg viewBox="0 0 30 30"><g id="Place" class="icon">
<g clip-path="url(#clip0_5008_21)">
<circle cx="15" cy="15" r="15" fill="#73A56C"/>
<path d="M15 16.5211C16.4497 16.5211 17.625 15.3585 17.625 13.9244C17.625 12.4903 16.4497 11.3277 15 11.3277C13.5502 11.3277 12.375 12.4903 12.375 13.9244C12.375 15.3585 13.5502 16.5211 15 16.5211Z" stroke="white" stroke-width="2" stroke-linecap="round" stroke-linejoin="round"/>
<path d="M19.9499 18.8209L16.2372 22.4936C15.9091 22.8179 15.4643 23 15.0004 23C14.5366 23 14.0918 22.8179 13.7636 22.4936L10.0501 18.8209C9.0712 17.8525 8.40455 16.6186 8.13448 15.2754C7.86441 13.9322 8.00306 12.5399 8.53288 11.2746C9.0627 10.0093 9.95991 8.92785 11.111 8.16698C12.2622 7.40611 13.6155 7 15 7C16.3845 7 17.7378 7.40611 18.889 8.16698C20.0401 8.92785 20.9373 10.0093 21.4671 11.2746C21.9969 12.5399 22.1356 13.9322 21.8655 15.2754C21.5955 16.6186 20.9288 17.8525 19.9499 18.8209Z" stroke="white" stroke-width="2" stroke-linecap="round" stroke-linejoin="round"/>
</g>
<defs>
<clipPath id="clip0_5008_21">
<rect width="30" height="30" fill="white"/>
</clipPath>
</defs>
</g></svg><svg viewBox="0 0 67.00005 66.00021"><g id="Prize" class="icon">
<path d="M65.9177 46.9909L58.8428 39.9159C66.9578 22.8871 54.4847 3 35.5002 3C16.5486 3 4.02623 22.8529 12.1575 39.9159L5.08259 46.9909C3.1136 48.9599 3.95081 52.3202 6.62068 53.1333L14.4794 55.5203L16.8664 63.3792C17.6762 66.0385 21.0296 66.8929 23.0088 64.9173L33.3371 54.5889C34.757 54.7066 36.1949 54.7106 37.6633 54.5889L47.9916 64.9173C49.9637 66.8894 53.3225 66.0439 54.134 63.3792L56.521 55.5203L64.3798 53.1333C67.0538 52.319 67.8834 48.9566 65.9177 46.9909ZM20.3991 62.3063L18.0109 54.4475C17.8354 53.8668 17.5191 53.3384 17.0903 52.9093C16.6614 52.4802 16.1332 52.1637 15.5525 51.9879L7.69377 49.6009L14.0552 43.2394C17.5102 48.3679 22.7543 52.1958 28.8856 53.8201L20.3991 62.3063ZM16.7225 40.5717C7.44891 25.8037 18.2382 6.69132 35.5002 6.69132C52.9016 6.69132 63.4681 25.9363 54.2779 40.5716C45.5763 54.4491 25.4227 54.4472 16.7225 40.5717ZM55.448 51.9878C54.8673 52.1637 54.3391 52.4803 53.91 52.9093C53.481 53.3384 53.1644 53.8667 52.9884 54.4474L50.6015 62.3062L42.1152 53.8198C48.2465 52.1956 53.4905 48.3677 56.9456 43.2392L63.307 49.6006L55.448 51.9878Z" fill="url(#paint0_linear_5008_33)"/>
<path d="M35.5002 10.3828C23.1487 10.3828 14.2192 22.3721 17.8459 34.2276C20.9358 44.3528 31.8967 49.7325 41.7016 46.2244C48.8429 43.6686 53.9567 36.8365 53.9567 28.8395C53.9567 18.6624 45.6771 10.3828 35.5002 10.3828ZM25.546 39.7338C15.5795 30.6368 22.136 14.0741 35.5002 14.0741C44.5954 14.0741 51.5189 22.2581 50.0821 31.1551C48.2744 42.6874 34.2377 47.6875 25.546 39.7338Z" fill="url(#paint1_linear_5008_33)"/>
<path d="M41.0999 23.8479L32.9645 29.8866L30.1463 26.8838C29.4486 26.1403 28.2807 26.1033 27.5374 26.8009C26.7942 27.4985 26.7571 28.6666 27.4547 29.4098L31.3983 33.6118C32.0401 34.2958 33.0921 34.3889 33.8441 33.8308L43.3 26.812C44.1185 26.2045 44.2894 25.0484 43.6819 24.2299C43.0744 23.4115 41.9184 23.2404 41.0999 23.8479Z" fill="url(#paint2_linear_5008_33)"/>
<defs>
<linearGradient id="paint0_linear_5008_33" x1="10.7846" y1="13.5" x2="60.0277" y2="54.4785" gradientUnits="userSpaceOnUse">
<stop stop-color="#37AF27"/>
<stop offset="1" stop-color="#10A2D0"/>
</linearGradient>
<linearGradient id="paint1_linear_5008_33" x1="10.7846" y1="13.5" x2="60.0277" y2="54.4785" gradientUnits="userSpaceOnUse">
<stop stop-color="#37AF27"/>
<stop offset="1" stop-color="#10A2D0"/>
</linearGradient>
<linearGradient id="paint2_linear_5008_33" x1="10.7846" y1="13.5" x2="60.0277" y2="54.4785" gradientUnits="userSpaceOnUse">
<stop stop-color="#37AF27"/>
<stop offset="1" stop-color="#10A2D0"/>
</linearGradient>
</defs>
</g></svg><svg viewBox="0 0 64 64"><g id="Screen" class="icon">
<path fill-rule="evenodd" clip-rule="evenodd" d="M6 6H64V64H6V6ZM9 9V13.9875H23.8764V9H9ZM26.8764 9V13.9875H61V9H26.8764ZM61 16.9875H9V61H61V16.9875ZM12.8465 20.834H57.1535V45.8525H12.8465V20.834ZM15.8465 23.834V40.3329L18.0991 37.7349C18.0991 37.7349 18.0991 37.7349 18.0991 37.7349C19.7027 35.8855 21.6849 34.4023 23.9116 33.3858C26.1384 32.3693 28.5575 31.8433 31.0053 31.8433H39.3322C41.4372 31.8433 43.5154 31.3714 45.414 30.4623C47.3125 29.5532 48.9831 28.23 50.3029 26.5902L52.521 23.834H15.8465ZM54.1535 26.5904L52.6401 28.471C51.0391 30.4603 49.0126 32.0653 46.7096 33.1681C44.4066 34.2708 41.8856 34.8433 39.3322 34.8433H31.0053C28.9874 34.8433 26.9931 35.2769 25.1575 36.1149C23.3218 36.9529 21.6877 38.1756 20.3658 39.7002L17.6324 42.8525H54.1535V26.5904ZM49.6957 54.9309V57.6828H46.6957V54.9309H12.7621V51.9309H46.6957V49.1792H49.6957V51.9309H57.507V54.9309H49.6957Z" fill="url(#paint0_linear_5008_36)"/>
<defs>
<linearGradient id="paint0_linear_5008_36" x1="12.2462" y1="15.6667" x2="57.581" y2="53.3929" gradientUnits="userSpaceOnUse">
<stop stop-color="#37AF27"/>
<stop offset="1" stop-color="#10A2D0"/>
</linearGradient>
</defs>
</g></svg><svg viewBox="0 0 50 50"><g id="Telegram" class="icon">
<g clip-path="url(#clip0_5008_9)">
<path fill-rule="evenodd" clip-rule="evenodd" d="M25 48C37.7025 48 48 37.7025 48 25C48 12.2975 37.7025 2 25 2C12.2975 2 2 12.2975 2 25C2 37.7025 12.2975 48 25 48ZM25 50C38.8071 50 50 38.8071 50 25C50 11.1929 38.8071 0 25 0C11.1929 0 0 11.1929 0 25C0 38.8071 11.1929 50 25 50Z" fill="#0041A4"/>
<path fill-rule="evenodd" clip-rule="evenodd" d="M15.3749 24.3184L26.1148 19.5735C31.2292 17.3916 32.2919 17.0126 32.9846 17.0001C33.1369 16.9974 33.4776 17.0361 33.6982 17.2197C33.8846 17.3748 33.9358 17.5843 33.9603 17.7312C33.9849 17.8782 34.0154 18.2132 33.9911 18.4749C33.7139 21.4616 32.5147 28.7098 31.9046 32.055C31.6464 33.4705 31.1385 33.9451 30.6461 33.9916C29.5766 34.0925 28.7645 33.2666 27.7287 32.5702L23.6188 29.7387C21.8005 28.5098 22.9792 27.8343 24.0155 26.7304C24.2866 26.4414 28.9987 22.0454 29.0898 21.6467C29.1009 21.5968 29.1118 21.4109 29.0042 21.3127C28.8965 21.2145 28.7375 21.2485 28.6228 21.2748C28.4603 21.3127 25.871 23.068 20.8548 26.541C20.1199 27.0587 19.4541 27.3109 18.8577 27.2977C18.2001 27.2831 16.9353 26.9164 15.995 26.6029C14.8416 26.2184 13.925 26.0151 14.0048 25.362C14.0464 25.0219 14.5031 24.674 15.3749 24.3184Z" fill="#0041A4"/>
</g>
<defs>
<clipPath id="clip0_5008_9">
<rect width="50" height="50" fill="white"/>
</clipPath>
</defs>
</g></svg><svg viewBox="0 0 30 30"><g id="Time" class="icon">
<g clip-path="url(#clip0_5008_23)">
<circle cx="15" cy="15" r="15" fill="#73A56C"/>
<path d="M15 13V16H17.0645M9.83871 7L7 9M20.1613 7L23 9M22.2258 16C22.2258 19.866 18.9907 23 15 23C11.0093 23 7.77419 19.866 7.77419 16C7.77419 12.134 11.0093 9 15 9C18.9907 9 22.2258 12.134 22.2258 16Z" stroke="white" stroke-width="2" stroke-linecap="round" stroke-linejoin="round"/>
</g>
<defs>
<clipPath id="clip0_5008_23">
<rect width="30" height="30" fill="white"/>
</clipPath>
</defs>
</g></svg><svg viewBox="0 0 52 27"><g id="Up-to" class="icon">
<path d="M52 27L27 2L2 27" stroke="white" stroke-width="4" stroke-linecap="round" stroke-linejoin="round"/>
</g></svg><svg viewBox="0 0 50 50"><g id="Viber" class="icon">
<g clip-path="url(#clip0_5008_11)">
<path fill-rule="evenodd" clip-rule="evenodd" d="M34.2937 16.5471C36.3796 18.4098 37.5359 22.5283 36.7548 29.0518C36.0713 34.8073 32.1606 35.8268 30.8479 36.169C30.7191 36.2025 30.6153 36.2296 30.5421 36.2539C30.1875 36.3708 27.0675 37.1718 23.005 36.8222C22.8633 36.99 22.7287 37.1498 22.6007 37.3017C20.5328 39.7562 20.1765 40.1791 19.441 39.9427C18.7581 39.7294 18.7984 38.6687 18.7984 38.6687L18.8039 36.0504H18.7984C12.8628 34.336 12.9457 28.0159 13.0155 24.6422C13.0853 21.2695 13.7224 18.5451 15.5311 16.6889C19.5588 12.894 30.9283 13.3649 34.2948 16.546L34.2937 16.5471ZM24.8286 18.665C24.4086 18.665 24.4086 19.3145 24.8286 19.3199C28.0872 19.3448 30.7708 21.5983 30.8002 25.7319C30.8002 26.1681 31.4439 26.1627 31.4384 25.7265C31.4035 21.2725 28.4722 18.6899 24.8286 18.665ZM29.1147 25.0467C29.1049 25.4775 29.7475 25.4981 29.7529 25.0619C29.8064 22.606 28.2802 20.583 25.4122 20.3698C24.9922 20.3395 24.9486 20.9943 25.3675 21.0246C27.8547 21.2119 29.1649 22.8961 29.1147 25.0467ZM28.4275 27.8404C27.8886 27.5308 27.3398 27.7235 27.1129 28.0276L26.6384 28.637C26.3973 28.9466 25.9467 28.9054 25.9467 28.9054C22.6587 28.0428 21.7795 24.6289 21.7795 24.6289C21.7795 24.6289 21.7391 24.1668 22.0402 23.9189L22.6336 23.4318C22.9304 23.198 23.118 22.6352 22.8158 22.0821C22.2071 20.9909 21.7491 20.4388 21.4423 20.069C21.3422 19.9483 21.2582 19.8471 21.1904 19.7528C20.9002 19.3924 20.4638 19.3112 20.01 19.5548H20.0002C19.0565 20.1024 18.0234 21.1275 18.354 22.1828C18.4518 22.3757 18.5637 22.6418 18.6993 22.9638C19.3455 24.4993 20.5271 27.3071 23.2576 29.5224C24.81 30.7898 27.2667 32.0887 28.3097 32.3885L28.3195 32.4037C29.3471 32.7435 30.3464 31.6785 30.8798 30.7141V30.7065C31.1166 30.24 31.038 29.7984 30.6922 29.5094C30.0791 28.9162 29.154 28.2614 28.4275 27.8404ZM27.473 24.5056C27.4184 23.3896 26.9101 22.8463 25.8617 22.7857C25.4373 22.7608 25.4766 22.1059 25.8966 22.1308C27.2755 22.2066 28.0413 23.0184 28.1111 24.4752C28.1308 24.9114 27.4926 24.9418 27.473 24.5056Z" fill="#0041A4"/>
<path fill-rule="evenodd" clip-rule="evenodd" d="M50 25C50 38.8071 38.8071 50 25 50C11.1929 50 0 38.8071 0 25C0 11.1929 11.1929 0 25 0C38.8071 0 50 11.1929 50 25ZM48 25C48 37.7025 37.7025 48 25 48C12.2975 48 2 37.7025 2 25C2 12.2975 12.2975 2 25 2C37.7025 2 48 12.2975 48 25Z" fill="#0041A4"/>
</g>
<defs>
<clipPath id="clip0_5008_11">
<rect width="50" height="50" fill="white"/>
</clipPath>
</defs>
</g></svg><svg viewBox="0 0 50 50"><g id="VK" class="icon">
<g clip-path="url(#clip0_5008_8)">
<path fill-rule="evenodd" clip-rule="evenodd" d="M25 48C37.7025 48 48 37.7025 48 25C48 12.2975 37.7025 2 25 2C12.2975 2 2 12.2975 2 25C2 37.7025 12.2975 48 25 48ZM25 50C38.8071 50 50 38.8071 50 25C50 11.1929 38.8071 0 25 0C11.1929 0 0 11.1929 0 25C0 38.8071 11.1929 50 25 50Z" fill="#0041A4"/>
<path d="M34.9566 29.9194C34.434 29.2864 33.8402 28.7191 33.2659 28.1704C33.0618 27.9753 32.8506 27.7736 32.6471 27.573C32.0628 26.9965 32.0415 26.7799 32.5041 26.125C32.8242 25.6736 33.1636 25.2216 33.4917 24.7845C33.7894 24.3879 34.0973 23.9778 34.3923 23.5663L34.4529 23.4817C35.0168 22.6943 35.6 21.8801 35.9103 20.8979C35.9909 20.6388 36.0755 20.2575 35.882 19.9386C35.6887 19.62 35.3136 19.5228 35.0482 19.4774C34.9169 19.4549 34.7866 19.4519 34.6656 19.4519L30.9728 19.4492L30.9423 19.4489C30.3839 19.4489 30.0076 19.7145 29.792 20.2608C29.5862 20.7828 29.36 21.3386 29.102 21.8672C28.5885 22.9196 27.9363 24.1318 26.9927 25.1428L26.9528 25.1858C26.8413 25.3067 26.7151 25.4435 26.6228 25.4435C26.6087 25.4435 26.5933 25.4408 26.5758 25.4353C26.3804 25.3584 26.2492 24.8809 26.2551 24.6587C26.2552 24.6557 26.2552 24.6526 26.2552 24.6495L26.2527 20.3423C26.2527 20.3273 26.2516 20.3125 26.2497 20.2977C26.1557 19.5975 25.9477 19.1617 25.1614 19.0063C25.1405 19.0021 25.1192 19 25.0979 19H21.258C20.6325 19 20.2877 19.2566 19.9637 19.6407C19.8763 19.7433 19.6942 19.9571 19.7844 20.2163C19.876 20.4795 20.1732 20.5357 20.27 20.554C20.7504 20.6463 21.0212 20.9428 21.0979 21.4609C21.2318 22.3606 21.2482 23.321 21.1496 24.4831C21.1222 24.8061 21.0678 25.0556 20.9782 25.2687C20.9574 25.3185 20.8836 25.4808 20.8084 25.4809C20.7845 25.4809 20.7153 25.4714 20.5893 25.3838C20.2914 25.1779 20.0735 24.884 19.8194 24.521C18.9551 23.2883 18.2297 21.9303 17.6014 20.3685C17.3684 19.7936 16.9333 19.4717 16.3756 19.4623C15.7628 19.4529 15.2073 19.4483 14.6774 19.4483C14.0984 19.4483 13.5617 19.4537 13.0376 19.4647C12.5889 19.4727 12.2785 19.6085 12.1152 19.8685C11.9516 20.1287 11.9623 20.4705 12.1469 20.8842C13.6244 24.199 14.964 26.6092 16.4907 28.6993C17.5604 30.1618 18.6334 31.1742 19.867 31.8849C21.1667 32.6352 22.6232 33 24.3196 33C24.5119 33 24.7108 32.9953 24.9113 32.9858C25.897 32.9373 26.2628 32.5773 26.309 31.6087C26.331 31.1137 26.3846 30.5946 26.6258 30.1518C26.778 29.8729 26.9199 29.8729 26.9665 29.8729C27.0564 29.8729 27.1677 29.9146 27.2874 29.9928C27.5019 30.1342 27.6859 30.3235 27.8367 30.4889C27.9787 30.646 28.1191 30.8048 28.2596 30.9636C28.5628 31.3063 28.8763 31.6606 29.2039 31.9967C29.9208 32.7327 30.7105 33.0565 31.6176 32.9862H35.0034C35.0106 32.9862 35.0178 32.9859 35.025 32.9855C35.3624 32.963 35.6546 32.7741 35.8267 32.4673C36.0399 32.0873 36.0356 31.6024 35.8152 31.17C35.5651 30.6811 35.2408 30.2634 34.9566 29.9194Z" fill="#0041A4"/>
</g>
<defs>
<clipPath id="clip0_5008_8">
<rect width="50" height="50" fill="white"/>
</clipPath>
</defs>
</g></svg><svg viewBox="0 0 50 50"><g id="WhatsApp" class="icon">
<g clip-path="url(#clip0_5008_10)">
<path fill-rule="evenodd" clip-rule="evenodd" d="M25.0501 13C28.2467 13.0013 31.2472 14.2398 33.5033 16.4877C35.7595 18.7356 37.0013 21.7236 37 24.9013C36.9973 31.4585 31.6362 36.7938 25.0502 36.7938H25.0453C23.0453 36.793 21.0802 36.2937 19.3348 35.3463L13 37L14.6953 30.8373C13.6496 29.0338 13.0993 26.9878 13.1002 24.8918C13.1028 18.3346 18.4635 13 25.0501 13ZM30.4986 27.3822C30.1999 27.2335 28.732 26.5146 28.4583 26.4154C28.1846 26.3162 27.9856 26.2667 27.7865 26.5642C27.5874 26.8616 27.0152 27.531 26.841 27.7293C26.6669 27.9276 26.4927 27.9524 26.1941 27.8036C26.1453 27.7793 26.0788 27.7506 25.9967 27.7152C25.5764 27.5337 24.7471 27.1757 23.7929 26.3288C22.9054 25.5409 22.3061 24.5677 22.1319 24.2702C21.9577 23.9727 22.1134 23.8119 22.2629 23.6638C22.3524 23.575 22.4552 23.4504 22.5581 23.3257C22.6095 23.2634 22.661 23.201 22.7107 23.1432C22.8377 22.9956 22.8927 22.8838 22.9675 22.7317C22.9807 22.705 22.9944 22.677 23.0093 22.6474C23.1088 22.4491 23.0591 22.2755 22.9844 22.1268C22.9345 22.0275 22.6516 21.342 22.395 20.7204C22.2675 20.4113 22.1464 20.1181 22.0638 19.9205C21.8498 19.4088 21.6328 19.4101 21.4587 19.4112C21.4357 19.4113 21.4134 19.4114 21.392 19.4104C21.218 19.4017 21.0188 19.3999 20.8197 19.3999C20.6207 19.3999 20.2972 19.4743 20.0235 19.7717C20.006 19.7908 19.9864 19.8116 19.9651 19.8342C19.6541 20.1645 18.9785 20.8819 18.9785 22.2508C18.9785 23.7055 20.0369 25.1112 20.1952 25.3214L20.1977 25.3247C20.2075 25.3377 20.225 25.3627 20.2502 25.3986C20.608 25.9092 22.4995 28.6089 25.2984 29.8116C26.0107 30.1178 26.5669 30.3006 27.0005 30.4376C27.7159 30.6637 28.3668 30.6318 28.8812 30.5553C29.4549 30.47 30.6478 29.8365 30.8966 29.1423C31.1455 28.4482 31.1455 27.8532 31.0708 27.7293C31.0107 27.6295 30.8701 27.5619 30.6618 27.4617C30.6113 27.4374 30.5568 27.4112 30.4986 27.3822Z" fill="#0041A4"/>
<path fill-rule="evenodd" clip-rule="evenodd" d="M50 25C50 38.8071 38.8071 50 25 50C11.1929 50 0 38.8071 0 25C0 11.1929 11.1929 0 25 0C38.8071 0 50 11.1929 50 25ZM48 25C48 37.7025 37.7025 48 25 48C12.2975 48 2 37.7025 2 25C2 12.2975 12.2975 2 25 2C37.7025 2 48 12.2975 48 25Z" fill="#0041A4"/>
</g>
<defs>
<clipPath id="clip0_5008_10">
<rect width="50" height="50" fill="white"/>
</clipPath>
</defs>
</g></svg></svg>