<svg width="295" height="107" viewBox="0 0 295 107" fill="none" xmlns="http://www.w3.org/2000/svg">
<path fill-rule="evenodd" clip-rule="evenodd" d="M0 56.6058C0 54.7988 1.46489 53.3339 3.27187 53.3339H57.8031C59.6101 53.3339 61.0749 54.7988 61.0749 56.6058V64.1311C61.0749 65.9381 59.6101 67.403 57.8031 67.403H43.0595C42.6726 67.403 42.297 67.4464 41.937 67.5285L41.9345 67.5121H28.6834L38.0629 71.9512C38.0285 72.3239 38.0355 72.7071 38.0884 73.0958L41.0567 94.9243C41.9249 101.309 36.9617 106.993 30.5185 106.993C24.0696 106.993 19.1047 101.299 19.9823 94.9101L22.9778 73.1026C23.3918 70.0887 21.0497 67.403 18.0076 67.403H3.27187C1.46489 67.403 0 65.9381 0 64.1311V56.6058ZM30.5375 100.667C33.0071 100.667 35.009 98.665 35.009 96.1955C35.009 93.7259 33.0071 91.7239 30.5375 91.7239C28.0678 91.7239 26.0659 93.7259 26.0659 96.1955C26.0659 98.665 28.0678 100.667 30.5375 100.667Z" fill="#272727"/>
<path d="M0 22.0715C0 20.2426 0.916806 18.5356 2.44134 17.5255L27.5257 0.907124C29.3514 -0.302361 31.7235 -0.302388 33.5493 0.907124L39.5897 4.90888V10.3089L41.7709 15.9801V4.14686C41.7709 2.64102 42.9917 1.4203 44.4975 1.4203H51.0412C52.547 1.4203 53.7678 2.64102 53.7678 4.14686V14.3019L58.6336 17.5255C60.1581 18.5356 61.0749 20.2426 61.0749 22.0715V41.3371C61.0749 44.3488 58.6334 46.7903 55.6218 46.7903H5.45312C2.44155 46.7903 0 44.3488 0 41.3371V22.0715Z" fill="url(#paint0_linear_5008_109)"/>
<path d="M97.3458 6.98584C84.4809 6.98584 79.5859 11.5042 79.5859 23.5533V34.3473C79.5859 46.3964 84.4809 50.9148 97.3458 50.9148H125.711C126.778 50.9148 127.343 50.35 127.343 49.2832V41.9407C127.343 40.8739 126.778 40.3091 125.711 40.3091H97.7851C92.3253 40.3091 91.0075 38.8657 91.0075 33.2177V24.6829C91.0075 19.0349 92.3253 17.5915 97.7851 17.5915H125.711C126.778 17.5915 127.343 17.0267 127.343 15.9599V8.61749C127.343 7.55064 126.778 6.98584 125.711 6.98584H97.3458Z" fill="#272727"/>
<path d="M135.466 6.98584C134.4 6.98584 133.835 7.55064 133.835 8.61749V43.3841C133.835 49.3459 135.968 50.9148 140.299 50.9148H146.7C151.908 50.9148 153.226 50.1617 155.109 46.5847L169.794 18.2819C169.919 17.9681 170.233 17.8426 170.547 17.8426H171.049C171.363 17.8426 171.488 18.0308 171.488 18.4701V49.2832C171.488 50.4128 172.053 50.9148 173.12 50.9148H181.278C182.345 50.9148 182.91 50.4128 182.91 49.2832V14.5165C182.91 8.61749 180.839 6.98584 176.509 6.98584H169.919C164.711 6.98584 163.393 7.73891 161.573 11.316L146.951 39.6188C146.825 39.9326 146.574 40.0581 146.198 40.0581H145.696C145.382 40.0581 145.256 39.8698 145.256 39.4305V8.61749C145.256 7.55064 144.691 6.98584 143.625 6.98584H135.466Z" fill="#272727"/>
<path d="M189.885 6.98584C188.756 6.98584 188.254 7.55064 188.254 8.61749V15.9599C188.254 17.0267 188.756 17.5915 189.885 17.5915H208.712V49.2832C208.712 50.35 209.277 50.9148 210.406 50.9148H218.502C219.569 50.9148 220.134 50.35 220.134 49.2832V17.5915H239.023C240.09 17.5915 240.655 17.0267 240.655 15.9599V8.61749C240.655 7.55064 240.09 6.98584 239.023 6.98584H189.885Z" fill="#272727"/>
<path d="M247.556 6.98584C246.49 6.98584 245.925 7.55064 245.925 8.61749V43.3841C245.925 49.3459 248.058 50.9148 252.389 50.9148H258.79C263.998 50.9148 265.316 50.1617 267.199 46.5847L281.884 18.2819C282.009 17.9681 282.323 17.8426 282.637 17.8426H283.139C283.453 17.8426 283.578 18.0308 283.578 18.4701V49.2832C283.578 50.4128 284.143 50.9148 285.21 50.9148H293.368C294.435 50.9148 295 50.4128 295 49.2832V14.5165C295 8.61749 292.929 6.98584 288.599 6.98584H282.009C276.8 6.98584 275.483 7.73891 273.663 11.316L259.041 39.6188C258.915 39.9326 258.664 40.0581 258.288 40.0581H257.786C257.472 40.0581 257.346 39.8698 257.346 39.4305V8.61749C257.346 7.55064 256.781 6.98584 255.715 6.98584H247.556Z" fill="#272727"/>
<path d="M86.3008 58.6902C81.7824 58.6902 80.0252 60.4473 80.0252 64.401V100.987C80.0252 102.054 80.59 102.619 81.6569 102.619H89.8151C90.9447 102.619 91.5095 102.054 91.5095 100.987V70.3627C91.5095 69.6097 91.8233 69.2959 92.5764 69.2959H116.612C117.365 69.2959 117.679 69.6097 117.679 70.3627V100.987C117.679 102.054 118.243 102.619 119.373 102.619H127.531C128.598 102.619 129.163 102.054 129.163 100.987V64.401C129.163 60.4473 127.406 58.6902 122.887 58.6902H86.3008Z" fill="#272727"/>
<path d="M139.088 58.6902C137.833 58.6902 137.205 59.3177 137.205 60.5729V100.987C137.205 102.054 137.77 102.619 138.837 102.619H146.995C148.062 102.619 148.627 102.054 148.627 100.987V89.7542H173.039C182.892 89.7542 186.782 85.2358 186.782 76.7638V71.6806C186.782 63.2086 182.892 58.6902 173.039 58.6902H139.088ZM148.627 69.6724C148.627 69.1704 148.878 68.9194 149.38 68.9194H170.78C174.231 68.9194 175.361 70.3 175.361 73.2495V75.5715C175.361 78.5837 174.231 79.9644 170.78 79.9644H148.627V69.6724Z" fill="#272727"/>
<path d="M209.926 58.6902C197.061 58.6902 192.166 63.2086 192.166 75.2577V86.0517C192.166 98.1007 197.061 102.619 209.926 102.619H229.506C242.371 102.619 247.266 98.1007 247.266 86.0517V75.2577C247.266 63.2086 242.371 58.6902 229.506 58.6902H209.926ZM203.588 76.1363C203.588 70.4255 204.906 69.0449 210.365 69.0449H229.066C234.526 69.0449 235.844 70.4255 235.844 76.1363V85.1731C235.844 90.8838 234.526 92.3272 229.066 92.3272H210.365C204.906 92.3272 203.588 90.8838 203.588 85.1731V76.1363Z" fill="#272727"/>
<defs>
<linearGradient id="paint0_linear_5008_109" x1="2.1933" y1="45.7218" x2="52.9766" y2="1.85586" gradientUnits="userSpaceOnUse">
<stop stop-color="#A1FF95"/>
<stop offset="1" stop-color="#00A3FF"/>
</linearGradient>
</defs>
</svg>
