<svg width="250" height="105" viewBox="0 0 250 105" fill="none" xmlns="http://www.w3.org/2000/svg">
<path fill-rule="evenodd" clip-rule="evenodd" d="M81.856 23.1818V20.9091L107.226 13.4848L121.202 17.4242V20.303L151.585 13.0303V2.87879L121.202 11.8182V9.09091L151.585 0L169.207 7.27273V72.5758H190.703C192.088 72.5758 193.21 73.695 193.21 75.0758C193.21 76.4565 192.088 77.5758 190.703 77.5758H67.0443C65.6599 77.5758 64.5377 76.4565 64.5377 75.0758C64.5377 73.695 65.6599 72.5758 67.0443 72.5758H106.922V65.6061L82.0079 66.6667V62.8788L106.922 61.6667V53.1818L82.0079 55.7576V51.8182L106.922 48.9394V40.7576L82.0079 44.8485V40.7576L106.922 36.6667V28.3333L82.0079 33.7879L81.856 30L106.922 24.0909V15.9091L81.856 23.1818ZM121.202 25V33.7879L151.585 28.3333V18.4848L121.202 25ZM121.202 38.3333V47.1212L151.585 43.6364V33.4848L121.202 38.3333ZM121.202 60.6061V51.8182L151.585 48.7879V58.7879L121.202 60.6061ZM121.202 65V72.4242H151.585V63.9394L121.202 65Z" fill="#272727"/>
<path d="M22.2459 85.303C20.9141 85.303 19.8656 85.7814 18.8171 87.7792L10.1176 104.24C9.89087 104.69 9.97588 105 10.5143 105H14.9349C15.3316 105 15.53 104.887 15.6717 104.606L17.3719 101.314H29.6703L31.3989 104.606C31.5689 104.887 31.7389 105 32.1356 105H36.4429C37.0096 105 37.0947 104.69 36.8396 104.24L27.9984 87.7792C26.9216 85.7814 25.9298 85.303 24.2295 85.303H22.2459ZM23.0677 90.2273C23.1811 90.0866 23.2661 90.0303 23.4078 90.0303H23.5494C23.6911 90.0303 23.7761 90.0866 23.8611 90.2273L27.6583 97.4589H19.3555L23.0677 90.2273Z" fill="#272727"/>
<path d="M45.8077 85.303C39.9986 85.303 37.7883 87.329 37.7883 92.7316V97.5714C37.7883 102.974 39.9986 105 45.8077 105H58.6162C59.0979 105 59.3529 104.747 59.3529 104.268V100.976C59.3529 100.498 59.0979 100.245 58.6162 100.245H46.0061C43.5407 100.245 42.9456 99.5974 42.9456 97.0649V93.2381C42.9456 90.7056 43.5407 90.0584 46.0061 90.0584H58.6162C59.0979 90.0584 59.3529 89.8052 59.3529 89.3268V86.0346C59.3529 85.5563 59.0979 85.303 58.6162 85.303H45.8077Z" fill="#272727"/>
<path d="M63.0211 85.303C62.5393 85.303 62.2843 85.5563 62.2843 86.0346V104.268C62.2843 104.747 62.5393 105 63.0211 105H66.7049C67.1866 105 67.4417 104.747 67.4417 104.268V96.9524H69.652C71.0405 96.9524 71.5222 97.1494 72.1457 97.9935L77.1614 104.606C77.3597 104.887 77.5014 105 78.0682 105H82.4038C83.0555 105 82.9988 104.381 82.8288 104.156L77.133 96.8961C76.4529 96.0238 75.8295 95.3485 75.0927 94.8701C75.5745 94.448 76.0279 93.8571 76.5946 93.1255L82.0637 86.0628C82.2621 85.7814 82.2054 85.303 81.667 85.303H77.4164C76.8497 85.303 76.708 85.4156 76.4813 85.697L71.7489 92.0844C71.0972 92.9849 70.6155 93.1255 69.2553 93.1255H67.4417V86.0346C67.4417 85.5563 67.1866 85.303 66.7049 85.303H63.0211Z" fill="#272727"/>
<path d="M94.2355 85.303C93.7254 85.303 93.4987 85.5563 93.4987 86.0346V89.3268C93.4987 89.8052 93.7254 90.0584 94.2355 90.0584H102.737V104.268C102.737 104.747 102.992 105 103.502 105H107.157C107.639 105 107.894 104.747 107.894 104.268V90.0584H116.424C116.905 90.0584 117.16 89.8052 117.16 89.3268V86.0346C117.16 85.5563 116.905 85.303 116.424 85.303H94.2355Z" fill="#272727"/>
<path d="M121.297 85.303C120.078 85.303 119.54 85.9784 119.54 86.8225V103.481C119.54 104.606 120.078 105 121.297 105H140.056C140.538 105 140.793 104.747 140.793 104.268V101.117C140.793 100.61 140.538 100.385 140.056 100.385H124.952C124.697 100.385 124.556 100.216 124.556 99.9351V97.0931H139.886C140.396 97.0931 140.623 96.868 140.623 96.3615V93.7727C140.623 93.2662 140.396 93.0411 139.886 93.0411H124.556V90.3398C124.556 90.0584 124.697 89.9459 124.952 89.9459H140.056C140.538 89.9459 140.793 89.6926 140.793 89.1861V86.0346C140.793 85.5563 140.538 85.303 140.056 85.303H121.297Z" fill="#272727"/>
<path d="M152.08 85.303C150.096 85.303 149.558 86.3723 149.359 87.9199C148.679 93.4632 148.311 96.3333 147.716 98.1905C147.149 99.9351 146.441 100.245 145.789 100.245H143.494C142.984 100.245 142.757 100.498 142.757 100.976V104.268C142.757 104.747 142.984 105 143.494 105H146.696C149.359 105 150.521 103.79 151.315 101.483C152.392 98.3312 152.987 93.0693 153.213 90.9026C153.27 90.4805 153.355 90.0584 154.007 90.0584H159.788C160.156 90.0584 160.298 90.1991 160.298 90.5368V104.268C160.298 104.747 160.524 105 161.034 105H164.718C165.2 105 165.455 104.747 165.455 104.268V87.8636C165.455 86.0909 164.69 85.303 162.621 85.303H152.08Z" fill="#272727"/>
<path d="M177.179 85.303C175.196 85.303 174.657 86.3723 174.459 87.9199C173.779 93.4632 173.41 96.3333 172.815 98.1905C172.249 99.9351 171.54 100.245 170.888 100.245H168.593C168.083 100.245 167.856 100.498 167.856 100.976V104.268C167.856 104.747 168.083 105 168.593 105H171.795C174.459 105 175.621 103.79 176.414 101.483C177.491 98.3312 178.086 93.0693 178.313 90.9026C178.37 90.4805 178.455 90.0584 179.106 90.0584H184.887C185.255 90.0584 185.397 90.1991 185.397 90.5368V104.268C185.397 104.747 185.624 105 186.134 105H189.818C190.3 105 190.555 104.747 190.555 104.268V87.8636C190.555 86.0909 189.789 85.303 187.721 85.303H177.179Z" fill="#272727"/>
<path d="M193.154 85.303C192.531 85.303 192.531 85.7814 192.758 86.1472L201.627 99.5974C201.259 100.048 200.749 100.245 199.587 100.245H196.753C196.243 100.245 195.988 100.498 195.988 100.976V104.268C195.988 104.747 196.243 105 196.753 105H199.644C201.74 105 203.781 104.55 205.254 102.186L215.427 86.1753C215.626 85.8377 215.654 85.303 215.031 85.303H211.318C210.355 85.303 210.185 85.5844 209.93 86.0065L204.234 95.3485L198.255 85.7814C198.028 85.4156 197.745 85.303 197.207 85.303H193.154Z" fill="#272727"/>
<path d="M218.464 85.303C217.897 85.303 217.614 85.5844 217.614 86.1472V104.268C217.614 104.747 217.869 105 218.35 105H222.034C222.516 105 222.771 104.747 222.771 104.268V99.2316H233.794C238.243 99.2316 240 97.2056 240 93.4069V91.1277C240 87.329 238.243 85.303 233.794 85.303H218.464ZM222.771 90.2273C222.771 90.0022 222.884 89.8896 223.111 89.8896H232.774C234.333 89.8896 234.843 90.5087 234.843 91.8312V92.8723C234.843 94.2229 234.333 94.842 232.774 94.842H222.771V90.2273Z" fill="#272727"/>
</svg>
