<svg width="250" height="105" viewBox="0 0 250 105" fill="none" xmlns="http://www.w3.org/2000/svg">
<g clip-path="url(#clip0_5008_65)">
<path d="M63.2645 36.5601V38.0087H75.6914C76.5199 38.0087 77.7626 38.0087 78.5785 38.8372C79.3944 39.6656 79.4069 40.9083 79.4069 41.7242V54.1512C79.4069 54.9796 79.4069 56.2223 78.5785 57.0382C77.75 57.8667 76.5073 57.8667 75.6914 57.8667H69.6913C68.657 57.8667 67.3089 57.8667 66.8043 56.7269C66.2871 55.5872 67.0111 54.5528 67.6327 53.7143L75.7165 42.9443H63.2896L58.3188 49.572C57.4853 50.6817 56.7648 51.6432 56.7648 52.8859C56.7648 54.1286 57.4351 55.0223 58.3188 56.1997L59.5615 57.8567C60.8042 59.5136 62.0469 61.1705 63.7038 61.999C65.3607 62.8274 67.3189 62.8274 70.0303 62.8274H75.4027C78.5157 62.8274 83.1601 62.8274 86.2731 59.7144C89.3861 56.6014 89.3862 52.0574 89.3862 50.4005V45.4297C89.3862 43.7728 89.3861 39.2288 86.2731 36.1158C83.1601 33.0028 78.5157 33.0028 75.4027 33.0028L66.8168 33C65.9883 32.9998 64.954 33 64.1306 33.8285C63.3021 34.6569 63.3021 35.6913 63.3021 36.5147" fill="#C4151C"/>
<path d="M48.4525 42.987H60.7539L45.942 62.9203H33.6406L48.4525 42.987Z" fill="#C4151C"/>
<path d="M0 46.5017C0 45.6732 0 44.6389 0.828463 43.8155C1.65693 42.992 2.69125 42.987 3.51469 42.987H24.3267C27.0129 42.987 28.9962 42.987 30.6531 43.8155C32.3101 44.6439 33.5402 46.3008 34.7954 47.9578L36.0381 49.6147C36.9193 50.7896 37.5921 51.6859 37.5921 52.9286C37.5921 54.1712 36.8716 55.1328 36.0381 56.2424L31.0674 62.8701H18.6404L26.7242 52.1001C27.3443 51.2716 28.0698 50.2373 27.5527 49.0875C27.0355 47.9477 25.6899 47.9477 24.6656 47.9477H14.9249V72.8016H4.98333V47.9477H0.0125525V46.4967" fill="#C4151C"/>
<path d="M101.174 59.4056C100.428 60.4198 99.6675 61.419 98.9219 62.4182V62.9856H101.023C102.052 61.6148 102.59 60.8994 102.59 60.0734H104.648V62.9856H106.617V60.0734H108.675C108.675 60.8943 109.212 61.6098 110.242 62.9856H112.343V62.4182L110.076 59.4056C111.984 57.9746 111.984 57.9746 111.984 56.0918V55.4666H109.838V56.0918C109.838 58.3738 109.838 58.3738 107.601 58.3738H106.617V55.4616H104.648V58.3738H103.664C101.427 58.3738 101.427 58.3738 101.427 56.0918V55.4666H99.2809V56.0918C99.2809 57.9696 99.2809 57.9696 101.174 59.4056Z" fill="#231F20"/>
<path fill-rule="evenodd" clip-rule="evenodd" d="M116.237 58.4014C116.237 56.747 116.237 56.747 118.069 56.747C119.902 56.747 119.902 56.747 119.902 58.4014H116.237ZM116.237 59.742H118.069C119.992 59.727 120.56 59.7571 121.208 59.6077L121.968 59.429V58.6984C121.968 57.4607 121.968 55.1335 118.428 55.1335H117.713C114.173 55.1335 114.173 57.4582 114.173 58.7235V59.439C114.173 60.7796 114.203 63.029 118.089 63.029C118.672 63.029 119.982 63.029 121.403 62.6725V61.0633H121.002L119.571 61.4198H118.049C116.217 61.4193 116.217 61.4193 116.217 59.7654L116.237 59.742Z" fill="#231F20"/>
<path d="M125.275 55.3386C125.275 56.4708 125.185 59.8826 123.397 62.2676V62.85H125.588C126.886 61.1203 126.886 58.8583 126.886 57.0006H129.974V62.85H131.942V55.3436H125.29" fill="#231F20"/>
<path fill-rule="evenodd" clip-rule="evenodd" d="M136.321 58.4014C136.321 56.747 136.321 56.747 138.156 56.747C139.989 56.747 139.989 56.747 139.989 58.4014H136.323M136.323 59.742H138.158C140.081 59.727 140.649 59.7571 141.297 59.6077L142.057 59.429V58.6984C142.057 57.4607 142.057 55.1335 138.517 55.1335H137.802C134.262 55.1335 134.262 57.4582 134.262 58.7235V59.439C134.262 60.7796 134.292 63.029 138.178 63.029C138.761 63.029 140.071 63.029 141.492 62.6725V61.0633H141.091L139.66 61.4198H138.138C136.306 61.4193 136.306 61.4193 136.306 59.7654L136.323 59.742Z" fill="#231F20"/>
<path d="M149.375 59.1546V58.9309C150.897 58.5443 150.897 57.6053 150.897 57.2463C150.897 56.5308 150.897 55.0999 147.282 55.0999C146.744 55.0999 145.492 55.0999 144.068 55.4589V57.0681H144.47L145.901 56.7091H147.555C148.702 56.7091 148.763 56.7091 148.763 57.5426C148.763 58.3635 148.763 58.3635 147.555 58.3635H145.901V59.7041H147.555C148.702 59.7041 148.763 59.7041 148.763 60.525C148.763 61.361 148.763 61.361 147.555 61.361H145.901L144.47 61.002H144.068V62.6113C145.499 62.9678 146.754 62.9678 147.282 62.9678C150.897 62.9678 150.897 61.5368 150.897 60.8213C150.897 60.4648 150.897 59.5259 149.375 59.1518" fill="#231F20"/>
<path d="M159.166 55.3386V58.1504H155.149V55.3386H153.141V62.9203H155.149V59.9077H159.166V62.9203H160.924V55.3386H159.166Z" fill="#231F20"/>
<path fill-rule="evenodd" clip-rule="evenodd" d="M167.2 59.1546C168.766 59.1546 168.766 59.1546 168.766 60.3169C168.766 61.4793 168.766 61.4793 167.2 61.4793H165.633V59.1546H167.2ZM174.229 55.3888H172.261V62.8952H174.229V55.3888ZM167.476 62.8952C169.846 62.8952 170.84 62.373 170.84 60.3345C170.84 59.2173 170.84 57.5981 167.752 57.5981C167.305 57.5981 166.545 57.6433 165.651 57.8667V55.3612H163.683V62.8676H167.473L167.476 62.8952Z" fill="#231F20"/>
<path fill-rule="evenodd" clip-rule="evenodd" d="M178.748 58.4014C178.748 56.747 178.748 56.747 180.581 56.747C182.413 56.747 182.413 56.747 182.413 58.4014H178.748ZM178.748 59.742H180.581C182.504 59.727 183.071 59.7571 183.719 59.6077L184.479 59.429V58.6984C184.479 57.4607 184.479 55.1335 180.94 55.1335H180.224C176.684 55.1335 176.684 57.4582 176.684 58.7235V59.439C176.684 60.7796 176.714 63.029 180.601 63.029C181.183 63.029 182.494 63.029 183.915 62.6725V61.0633H183.513L182.082 61.4198H180.561C178.728 61.4193 178.728 61.4193 178.728 59.7654L178.748 59.742Z" fill="#231F20"/>
<path fill-rule="evenodd" clip-rule="evenodd" d="M192.556 58.9035C192.556 56.8901 192.556 56.9353 195.217 56.9353C195.576 56.9353 196.068 56.9797 196.663 57.114V60.3275L194.755 60.8045C192.548 60.8047 192.548 60.8047 192.548 58.8965M191.386 64.0932V65.7928C192.817 66.1518 193.972 66.1518 194.424 66.1518C198.491 66.1518 198.616 64.392 198.616 62.3861V55.4069H197.973L197.019 56.1224C196.364 55.2713 194.767 55.2437 194.258 55.2437C190.467 55.2437 190.467 57.6287 190.467 58.7082V59.0672C190.467 60.3199 190.467 62.381 193.68 62.381C194.649 62.381 195.797 62.1124 196.643 61.4873V62.1124C196.643 64.4221 196.598 64.4371 194.228 64.4371H193.198L191.767 64.0781H191.366L191.386 64.0932Z" fill="#231F20"/>
<path fill-rule="evenodd" clip-rule="evenodd" d="M204.606 55.1629C200.815 55.1629 200.815 57.3997 200.815 58.7529V59.4684C200.815 60.809 200.815 63.0584 204.606 63.0584H205.322C209.112 63.0584 209.112 60.8215 209.112 59.4684V58.7529C209.112 57.4123 209.112 55.1629 205.322 55.1629H204.606ZM204.963 56.8173C207.064 56.8173 207.064 56.8173 207.064 59.0993C207.064 61.3814 207.064 61.3814 204.963 61.3814C202.861 61.3814 202.861 61.3814 202.861 59.0993C202.861 56.8173 202.861 56.8173 204.963 56.8173Z" fill="#231F20"/>
<path fill-rule="evenodd" clip-rule="evenodd" d="M217.41 59.1546C217.41 61.3914 217.41 61.3914 215.218 61.3914C214.681 61.3914 213.995 61.3914 213.295 61.2124V57.4467L215.203 56.9697C217.41 56.9697 217.41 56.9993 217.41 59.1463M211.334 55.3805V65.9246H213.302V62.661C214.196 62.8847 214.912 63.0627 215.989 63.0627C219.478 63.0627 219.478 60.5019 219.478 59.4726V58.7572C219.478 57.5044 219.478 55.1671 216.215 55.1671C214.545 55.1671 213.579 55.8977 213.051 56.2994L212.336 55.3454H211.352L211.334 55.3805Z" fill="#231F20"/>
<path fill-rule="evenodd" clip-rule="evenodd" d="M225.443 55.1629C221.652 55.1629 221.652 57.3997 221.652 58.7529V59.4684C221.652 60.809 221.652 63.0584 225.443 63.0584H226.159C229.95 63.0584 229.95 60.8215 229.95 59.4684V58.7529C229.95 57.4123 229.95 55.1629 226.159 55.1629H225.443ZM225.8 56.8173C227.901 56.8173 227.901 56.8173 227.901 59.0993C227.901 61.3814 227.901 61.3814 225.8 61.3814C223.698 61.3814 223.698 61.3814 223.698 59.0993C223.698 56.8173 223.698 56.8173 225.8 56.8173Z" fill="#231F20"/>
<path d="M235.736 55.1629C235.021 55.1629 234.082 55.1629 232.648 55.5219V57.1311H233.05L234.481 56.7746H236.314C237.298 56.7746 237.298 56.7746 237.298 57.342C237.298 57.7286 237.298 57.8491 236.537 57.9822L234.747 58.429C233.718 58.6826 232.287 59.0692 232.287 60.6207C232.287 61.65 232.287 63.0358 235.902 63.0358C236.617 63.0358 237.556 63.0358 238.99 62.6793V61.0701H238.588C237.991 61.234 237.426 61.3688 237.202 61.4291H235.325C234.34 61.4291 234.34 61.4291 234.34 60.8617C234.34 60.5203 234.34 60.445 234.757 60.3244L235.756 60.0558L236.889 59.7721C237.918 59.5186 239.349 59.147 239.349 57.5805C239.349 56.5512 239.349 55.1654 235.734 55.1654" fill="#231F20"/>
<path d="M248.54 63.1713L250.001 62.0818C249.464 61.3663 249.464 61.3663 249.464 60.0985V55.4541H247.495V60.9019L245.587 61.3789C243.559 61.3789 243.559 61.3789 243.559 59.3077V55.4415H241.591V59.609C241.591 61.0851 241.591 63.1488 244.578 63.1488C246.145 63.1488 247.114 62.4182 247.641 62.0165L248.52 63.1789" fill="#231F20"/>
<path fill-rule="evenodd" clip-rule="evenodd" d="M99.4164 37.3886V47.9326H101.563V45.0205H103.263C106.175 45.0205 108.459 45.0205 108.459 41.2045C108.459 37.3635 106.177 37.3635 103.263 37.3635H99.4215M101.568 43.1376V39.2463H104.154C106.077 39.2463 106.167 39.2463 106.167 41.1995C106.167 43.0924 106.167 43.1376 104.154 43.1376H101.568Z" fill="#231F20"/>
<path fill-rule="evenodd" clip-rule="evenodd" d="M113.977 40.2505C110.186 40.2505 110.186 42.4874 110.186 43.8405V44.556C110.186 45.8966 110.186 48.146 113.977 48.146H114.693C118.484 48.146 118.484 45.9092 118.484 44.556V43.8405C118.484 42.4999 118.484 40.2505 114.693 40.2505H113.977ZM114.334 41.9049C116.435 41.9049 116.435 41.9049 116.435 44.187C116.435 46.469 116.435 46.469 114.334 46.469C112.232 46.469 112.232 46.469 112.232 44.187C112.232 41.9049 112.232 41.9049 114.334 41.9049Z" fill="#231F20"/>
<path d="M124.27 48.1335C124.808 48.1335 126.193 48.1335 127.634 47.7745V46.1653H127.233L125.787 46.5217H124.938C122.448 46.5217 122.448 46.5217 122.448 44.197C122.448 41.8723 122.448 41.8723 124.28 41.8723C125.832 41.8723 125.832 41.8723 126.203 43.3485L127.993 42.9016C127.993 42.1861 127.993 40.2656 124.629 40.2656H123.914C120.374 40.2656 120.374 42.5024 120.374 43.8556V44.5711C120.374 45.9117 120.374 48.1611 124.265 48.1611" fill="#231F20"/>
<path d="M133.81 48.1335C134.347 48.1335 135.733 48.1335 137.174 47.7745V46.1653H136.773L135.327 46.5217H134.478C131.988 46.5217 131.988 46.5217 131.988 44.197C131.988 41.8723 131.988 41.8723 133.82 41.8723C135.372 41.8723 135.372 41.8723 135.743 43.3485L137.533 42.9016C137.533 42.1861 137.533 40.2656 134.169 40.2656H133.454C129.914 40.2656 129.914 42.5024 129.914 43.8556V44.5711C129.914 45.9117 129.914 48.1611 133.805 48.1611" fill="#231F20"/>
<path d="M146.363 48.1586L147.824 47.069C147.287 46.3536 147.287 46.3535 147.287 45.0858V40.4413H145.318V45.8891L143.41 46.3661C141.382 46.3661 141.382 46.3661 141.382 44.2949V40.4288H139.414V44.5962C139.414 46.0724 139.414 48.136 142.401 48.136C143.968 48.136 144.937 47.4054 145.464 47.0038L146.343 48.1661" fill="#231F20"/>
<path fill-rule="evenodd" clip-rule="evenodd" d="M153.392 37.7652C152.423 37.7652 152.423 37.7652 151.946 37.2279L151.082 37.8982C152.021 39.1058 152.498 39.1961 153.869 39.1961H154.198C155.554 39.1961 156.046 39.1065 156.959 37.8982L156.096 37.2279C155.634 37.7652 155.634 37.7652 154.65 37.7652H153.382M157.022 48.1837L158.483 47.0941C157.946 46.3787 157.946 46.3787 157.946 45.1109V40.4664H155.978V45.9142L154.07 46.3912C152.087 46.3912 152.041 46.3912 152.041 44.32V40.4539H150.073V44.6213C150.073 46.0975 150.073 48.1611 153.061 48.1611C154.627 48.1611 155.596 47.4306 156.123 47.0289L157.002 48.1912L157.022 48.1837Z" fill="#231F20"/>
<path d="M164.187 48.1335C164.724 48.1335 166.11 48.1335 167.551 47.7745V46.1653H167.15L165.704 46.5217H164.852C162.362 46.5217 162.362 46.5217 162.362 44.197C162.362 41.8723 162.362 41.8723 164.195 41.8723C165.746 41.8723 165.746 41.8723 166.118 43.3485L167.908 42.9016C167.908 42.1861 167.908 40.2656 164.544 40.2656H163.828C160.288 40.2656 160.288 42.5024 160.288 43.8556V44.5711C160.289 45.9117 160.289 48.1611 164.18 48.1611" fill="#231F20"/>
<path d="M170.212 40.4514V47.9578H172.181V45.0456H174.596C174.596 45.8665 175.133 46.582 176.16 47.9578H178.261V47.3904L175.994 44.3778C177.902 42.9468 177.902 42.9468 177.902 41.0639V40.4388H175.756V41.0639C175.756 43.346 175.756 43.346 173.519 43.346H172.178V40.4338H170.21" fill="#231F20"/>
<path d="M187.284 48.1586L188.745 47.069C188.208 46.3536 188.208 46.3535 188.208 45.0858V40.4413H186.239V45.8891L184.331 46.3661C182.303 46.3661 182.303 46.3661 182.303 44.2949V40.4288H180.335V44.5962C180.335 46.0724 180.335 48.136 183.322 48.136C184.889 48.136 185.858 47.4054 186.385 47.0038L187.264 48.1661" fill="#231F20"/>
<path fill-rule="evenodd" clip-rule="evenodd" d="M192.556 43.5142C192.556 41.8598 192.556 41.8598 194.391 41.8598C196.224 41.8598 196.224 41.8598 196.224 43.5142H192.558M192.558 44.8548H194.393C196.316 44.8397 196.884 44.8699 197.532 44.7205L198.292 44.5417V43.8112C198.292 42.5735 198.292 40.2463 194.752 40.2463H194.037C190.497 40.2463 190.497 42.571 190.497 43.8363V44.5518C190.497 45.8924 190.527 48.1418 194.414 48.1418C194.996 48.1418 196.306 48.1418 197.727 47.7828V46.1736H197.326L195.895 46.53H194.373C192.538 46.5298 192.538 46.5298 192.538 44.8756L192.558 44.8548Z" fill="#231F20"/>
</g>
<defs>
<clipPath id="clip0_5008_65">
<rect width="250" height="105" fill="white"/>
</clipPath>
</defs>
</svg>
