<svg width="250" height="105" viewBox="0 0 250 105" fill="none" xmlns="http://www.w3.org/2000/svg">
<path fill-rule="evenodd" clip-rule="evenodd" d="M33.7079 31H25.2809V32.9101H7.02247C3.14405 32.9101 0 36.1171 0 40.073V64.6657C0 68.6217 3.14405 71.8287 7.02247 71.8287H25.2809V73.5H33.7079V71.8287H51.9663C55.8447 71.8287 58.9888 68.6217 58.9888 64.6657V40.073C58.9888 36.1171 55.8447 32.9101 51.9663 32.9101H33.7079V31ZM25.2809 41.7444H8.89513V62.9944H25.2809V41.7444ZM33.7079 62.9944V41.7444H50.3277V62.9944H33.7079Z" fill="#272727"/>
<path fill-rule="evenodd" clip-rule="evenodd" d="M76.3109 32.9101C72.4324 32.9101 69.2884 36.1171 69.2884 40.073V64.6657C69.2884 68.6217 72.4324 71.8287 76.3109 71.8287H114.232C118.111 71.8287 121.255 68.6217 121.255 64.6657V40.073C121.255 36.1171 118.111 32.9101 114.232 32.9101H76.3109ZM112.125 41.7444H78.1835V62.9944H112.125V41.7444Z" fill="#272727"/>
<path fill-rule="evenodd" clip-rule="evenodd" d="M132.022 40.073C132.022 36.1171 135.167 32.9101 139.045 32.9101H175.562C179.44 32.9101 182.584 36.1171 182.584 40.073V62.9944H185.627V71.8287H129.213V62.9944H132.022V40.073ZM140.449 62.9944H174.391V41.7444H140.449V62.9944Z" fill="#272727"/>
<path fill-rule="evenodd" clip-rule="evenodd" d="M196.395 40.073C196.395 36.1171 199.539 32.9101 203.418 32.9101H239.934C243.813 32.9101 246.957 36.1171 246.957 40.073V62.9944H250V71.8287H193.586V62.9944H196.395V40.073ZM204.822 62.9944H238.764V41.7444H204.822V62.9944Z" fill="#272727"/>
</svg>
