<svg width="321" height="148" viewBox="0 0 321 148" fill="none" xmlns="http://www.w3.org/2000/svg">
<path d="M0.742188 61.5029C0.742188 54.3923 6.50652 48.6279 13.6172 48.6279V48.6279C20.7279 48.6279 26.4922 42.8636 26.4922 35.7529V20.1279C26.4922 9.08224 35.4465 0.12793 46.4922 0.12793H274.992C286.038 0.12793 294.992 9.08223 294.992 20.1279V35.7529C294.992 42.8636 300.757 48.6279 307.867 48.6279V48.6279C314.978 48.6279 320.742 54.3923 320.742 61.5029V127.628C320.742 138.674 311.788 147.628 300.742 147.628H20.7422C9.69649 147.628 0.742188 138.674 0.742188 127.628V61.5029Z" fill="#E8E8E8"/>
</svg>
